<svg width="16" height="16" viewBox="0 0 16 16" fill="none" xmlns="http://www.w3.org/2000/svg">
<g clip-path="url(#clip0_605_542264)">
<path d="M8 16C12.4183 16 16 12.4183 16 8C16 3.58172 12.4183 0 8 0C3.58172 0 0 3.58172 0 8C0 12.4183 3.58172 16 8 16Z" fill="white" fill-opacity="0.746193"/>
<path d="M0.322281 5.7724H4.73019L4.80199 0.67749C3.7276 1.14662 2.76944 1.84614 1.99532 2.72657C1.2212 3.607 0.65005 4.6468 0.322281 5.7724Z" fill="#008000"/>
<path d="M4.58463 15.2234L4.6124 10.4059L0.369354 10.374C0.698624 11.4298 1.24322 12.4058 1.96875 13.2405C2.69428 14.0752 3.58499 14.7503 4.58463 15.2234Z" fill="#008000"/>
<path d="M11.2486 0.695923V5.81166H15.6925C15.3712 4.6857 14.8068 3.64397 14.0389 2.76003C13.2711 1.87608 12.3185 1.17147 11.2486 0.695923Z" fill="#008000"/>
<path d="M15.6625 10.2866L11.2878 10.2489V15.2824C12.3322 14.8115 13.2633 14.1218 14.018 13.2599C14.7727 12.398 15.3336 11.384 15.6625 10.2866Z" fill="#008000"/>
<path d="M7.10176 14.0214C7.01534 13.935 6.96015 13.783 6.86769 13.3766C6.82145 13.1734 6.76289 12.9671 6.73756 12.9181C6.66804 12.7836 6.48306 12.5946 6.15302 12.3206C5.67262 11.9219 5.59722 11.7902 5.4264 11.0522C5.2881 10.4547 5.22434 10.2796 5.04479 10.0043C4.8674 9.73225 4.86407 9.65243 5.01595 9.31303C5.16379 8.98263 5.17503 8.90237 5.1205 8.56642C5.02356 7.96915 5.12868 7.65036 5.78103 6.56321C5.95752 6.2691 6.20169 5.81385 6.32364 5.55153C6.6779 4.78951 6.7659 4.64919 7.13032 4.26525C7.41109 3.96943 7.47902 3.86739 7.74609 3.34028C7.86691 3.10181 8.00452 2.86008 8.05188 2.8031C8.18509 2.64283 8.40624 2.50581 8.88413 2.28748C9.12555 2.17718 9.4052 2.03308 9.50559 1.96725C9.66093 1.86538 9.70476 1.84967 9.7999 1.86177C10.0396 1.89223 10.4807 2.1709 10.8371 2.51691C10.9892 2.66463 11.0033 2.68895 11.0033 2.80402C11.0033 2.89821 10.971 2.98899 10.8745 3.16597C10.7079 3.47159 10.6913 3.55103 10.6563 4.20744C10.6071 5.13077 10.5526 5.3509 10.2667 5.7825C10.1665 5.93368 10.0702 6.1094 10.0527 6.173C10.0352 6.23659 10.0208 6.45971 10.0207 6.66883C10.0205 7.11694 9.9336 7.68382 9.76114 8.36213C9.42615 9.67972 8.99276 10.6134 8.37556 11.347C8.03757 11.7488 7.86636 12.0206 7.7771 12.2971C7.71201 12.4988 7.69802 12.608 7.67848 13.0669C7.66552 13.3711 7.63912 13.6515 7.61724 13.7173C7.56313 13.8799 7.3592 14.0786 7.24638 14.0786C7.19778 14.0786 7.13351 14.0532 7.10176 14.0214Z" fill="#008000"/>
</g>
<defs>
<clipPath id="clip0_605_542264">
<rect width="16" height="16" fill="white"/>
</clipPath>
</defs>
</svg>
