<svg width="16" height="16" viewBox="0 0 16 16" fill="none" xmlns="http://www.w3.org/2000/svg">
<g clip-path="url(#clip0_605_542250)">
<path d="M8 16C12.4183 16 16 12.4183 16 8C16 3.58172 12.4183 0 8 0C3.58172 0 0 3.58172 0 8C0 12.4183 3.58172 16 8 16Z" fill="#0000AA"/>
<path d="M8 16L4 1.0718L14.9282 12L0 8L14.9282 4L4 14.9282L8 0L12 14.9282L1.0718 4L16 8L1.0718 12L12 1.0718L8 16Z" fill="white"/>
<path d="M7.99999 12.5333C10.5037 12.5333 12.5333 10.5037 12.5333 8.00001C12.5333 5.49632 10.5037 3.46667 7.99999 3.46667C5.4963 3.46667 3.46666 5.49632 3.46666 8.00001C3.46666 10.5037 5.4963 12.5333 7.99999 12.5333Z" fill="#0000AA"/>
<path d="M8 12C10.2091 12 12 10.2091 12 8C12 5.79086 10.2091 4 8 4C5.79086 4 4 5.79086 4 8C4 10.2091 5.79086 12 8 12Z" fill="white"/>
</g>
<defs>
<clipPath id="clip0_605_542250">
<rect width="16" height="16" fill="white"/>
</clipPath>
</defs>
</svg>
