<svg width="16" height="16" viewBox="0 0 16 16" fill="none" xmlns="http://www.w3.org/2000/svg">
<g clip-path="url(#clip0_605_563247)">
<path d="M8 16C12.2109 16 15.6244 12.4183 15.6244 8C15.6244 3.58172 12.2109 0 8 0C3.78913 0 0.375549 3.58172 0.375549 8C0.375549 12.4183 3.78913 16 8 16Z" fill="#FF0000"/>
<path fill-rule="evenodd" clip-rule="evenodd" d="M3.53894 14.5069L8.02963 11.0223L12.4634 14.4902L10.8359 8.90521L15.23 5.52801L9.77729 5.44735L8.0496 -0.0065918L6.262 5.44735L0.789337 5.42718L5.23338 8.97577L3.53894 14.5069Z" fill="#FFFF00"/>
<path d="M7.73925 15.9931C7.2102 15.9702 6.74645 15.9054 6.25703 15.786C5.32878 15.5595 4.45108 15.1489 3.64954 14.5662C3.57523 14.5121 3.55881 14.4973 3.5657 14.4906C3.58919 14.4678 8.02807 11.0275 8.03212 11.0289C8.04182 11.0325 12.4508 14.4835 12.4508 14.4875C12.4508 14.4974 12.2137 14.667 12.0417 14.7802C11.7516 14.9711 11.4105 15.1627 11.1162 15.2999C10.2595 15.6995 9.39526 15.9209 8.44683 15.9839C8.34218 15.9909 7.83908 15.9974 7.73925 15.9931Z" fill="#00A080"/>
</g>
<defs>
<clipPath id="clip0_605_563247">
<rect width="15.2489" height="16" fill="white" transform="translate(0.375549)"/>
</clipPath>
</defs>
</svg>
