<svg width="16" height="16" viewBox="0 0 16 16" fill="none" xmlns="http://www.w3.org/2000/svg">
<circle cx="8" cy="8" r="8" fill="#7C7C7C"/>
<path d="M5.8959 4L6.48062 4.18123C5.9845 5.14779 5.19601 6.08846 4.41639 6.70982C4.33666 6.589 4.13289 6.31284 4 6.20065C4.74419 5.67422 5.46179 4.85437 5.8959 4ZM5.62126 5.04423H11.7254V5.63107H5.39978L5.62126 5.04423ZM4.44297 7.08954H11.814V7.67638H4.44297V7.08954ZM4.14175 9.1521H12V9.73894H4.14175V9.1521ZM7.0299 6.13161H7.60576V9.46278H7.0299V6.13161ZM5.50609 6.13161H6.10853V9.48867H5.50609V6.13161ZM8.63344 6.13161H9.2093V9.48867H8.63344V6.13161ZM10.1927 6.13161H10.8128V9.48867H10.1927V6.13161ZM6.68439 10.3344L7.29568 10.274C7.41085 10.7832 7.49945 11.4477 7.50831 11.836L6.86157 11.931C6.85271 11.5254 6.7907 10.8522 6.68439 10.3344ZM8.50941 10.3172L9.12957 10.2136C9.36877 10.7055 9.60797 11.37 9.69657 11.7843L9.04097 11.9137C8.96124 11.5081 8.73976 10.835 8.50941 10.3172ZM10.3344 10.274L10.9457 10.0583C11.2913 10.5674 11.6988 11.2837 11.8937 11.7066L11.2381 11.9827C11.0698 11.5426 10.6711 10.8177 10.3344 10.274ZM5.18715 10.0928L5.81617 10.2481C5.58583 10.8177 5.23145 11.534 4.91251 12L4.27464 11.7584C4.59358 11.3355 4.96567 10.6537 5.18715 10.0928Z" fill="white"/>
</svg>
