<svg width="16" height="16" viewBox="0 0 16 16" fill="none" xmlns="http://www.w3.org/2000/svg">
<path fill-rule="evenodd" clip-rule="evenodd" d="M9.84582 2.81159C9.30789 2.85156 8.77978 2.97999 8.29383 3.23024C7.40857 3.65017 6.44777 4.81691 6.22525 5.18668C5.99788 5.56583 5.73426 6.58238 5.74295 7.41086C5.75863 7.8602 5.86538 8.27855 6.01138 8.47793C6.00228 8.36225 5.99318 8.30264 5.98393 8.19691C5.98391 6.90077 7.03471 5.85005 8.33093 5.85009C9.62707 5.85015 10.5963 6.90085 10.6777 8.19691C10.6403 9.22549 10.5379 9.78388 10.34 10.4671C9.87456 11.8226 8.79989 13.0015 7.39736 13.3951C6.68934 13.6392 6.11953 13.6523 5.42987 13.6381C4.92243 13.6439 4.42896 13.5436 3.96153 13.3997C5.72565 14.7283 6.86255 14.7458 7.63404 14.7946C7.72524 14.7966 7.80586 14.8009 7.89707 14.8C9.08729 14.7772 10.0333 14.6678 11.3832 14.0252C12.4729 13.3958 13.546 12.4927 14.2466 11.3513C14.7204 10.5894 14.9946 9.72509 15.0503 8.81737C15.0076 7.4942 15.0673 6.09576 14.29 4.97959C13.632 3.99194 12.6613 3.12711 11.4572 2.92343C10.9315 2.81999 10.3838 2.77161 9.84582 2.81159Z" fill="#C20F51"/>
<path fill-rule="evenodd" clip-rule="evenodd" d="M8.05217 1.201C6.49082 1.17593 4.89395 1.60164 3.65802 2.58155C2.42408 3.53417 1.35543 4.8187 1.03924 6.38073C0.886716 7.17079 0.966611 7.98619 1.00673 8.78419C1.06874 9.81554 1.43171 10.8431 2.15458 11.598C2.85962 12.4484 3.88206 13.0352 4.9906 13.1291C5.92896 13.2075 6.92253 13.1735 7.76383 12.7013C8.56611 12.2644 9.20056 11.5631 9.7238 10.8255C10.1482 10.0103 10.2782 9.05046 10.1851 8.14191C10.1379 7.97574 10.1419 7.737 10.0197 7.61693C9.96288 7.97288 9.9775 8.35859 9.8096 8.69495C9.45119 9.56506 8.53389 10.1568 7.5914 10.1139C6.46608 10.1302 5.45969 9.13638 5.35029 8.03835C5.27498 6.57198 5.57533 5.00035 6.59076 3.88374C7.51592 2.7976 8.9783 2.27584 10.3842 2.34836C10.8951 2.32944 11.4006 2.42434 11.8966 2.5164C11.3584 2.07216 10.7092 1.72629 10.0469 1.48566C9.40845 1.25728 8.72658 1.19046 8.05217 1.201Z" fill="#8C8C8C"/>
</svg>
