<svg width="16" height="16" viewBox="0 0 16 16" fill="none" xmlns="http://www.w3.org/2000/svg">
<g clip-path="url(#clip0_605_563233)">
<path d="M7.51078 0.0203099C9.53609 -0.133157 11.5933 0.590934 13.1152 1.92694C14.1499 2.81978 14.9286 3.99582 15.3893 5.27981C15.7713 6.36806 15.9137 7.53727 15.8292 8.68632C15.6374 11.0664 14.3362 13.3436 12.3414 14.668C10.3337 16.0518 7.64539 16.385 5.35931 15.5377C3.16916 14.7548 1.38511 12.9382 0.622973 10.7428C0.282874 9.82724 0.145014 8.84531 0.14729 7.87151C0.162572 5.21673 1.5958 2.60974 3.85228 1.2035C4.94476 0.506072 6.21704 0.0976937 7.51078 0.0203099ZM5.43215 1.46459C5.43963 1.88337 5.74461 2.20266 6.08991 2.39872C5.7846 2.82921 5.37004 3.16151 4.98443 3.51559C5.50238 3.41089 6.00895 3.25742 6.52267 3.13549C6.82635 3.05518 7.1619 3.0425 7.42884 2.86075C7.60279 2.75183 7.74651 2.5652 7.73968 2.3506C7.66522 2.01928 7.36251 1.81965 7.06891 1.69869C6.54803 1.50231 5.98521 1.44866 5.43215 1.46459ZM11.0269 2.56227C11.0678 2.71834 11.1156 2.87213 11.166 3.02527C11.1937 3.08802 11.154 3.15045 11.1212 3.20215C10.8809 3.5533 10.6022 3.87584 10.3259 4.19838C9.82286 4.77941 9.15144 5.18747 8.44719 5.47912C8.44491 5.49928 8.44101 5.53927 8.43906 5.5591C8.63805 5.62251 8.84841 5.65762 9.0396 5.74346C9.10202 5.81954 9.12998 5.91708 9.17193 6.00487C9.24118 6.17557 9.36701 6.34367 9.32279 6.53778C9.20412 7.41176 9.16022 8.29257 9.11763 9.17273C9.13259 9.46471 8.98855 9.73783 9.01651 10.0288C9.09422 10.5816 9.275 11.133 9.62713 11.5746C9.71394 11.5216 9.81636 11.4582 9.82676 11.346C9.91975 10.3666 9.94707 9.38245 10.0017 8.40052C10.5756 8.55691 11.1602 8.36053 11.6648 8.08968C11.7288 9.09892 11.6602 10.1114 11.7032 11.122C11.7425 11.9023 11.7113 12.6836 11.724 13.4646C11.7269 13.8453 11.7744 14.2423 11.9808 14.572C12.4097 14.4475 12.5323 13.9526 12.5615 13.5608C12.6142 11.8688 12.6175 10.1709 12.8285 8.48831C12.8545 8.29257 12.8688 8.09098 12.8334 7.89557C12.7891 7.76974 12.7095 7.66017 12.6422 7.54605C13.2151 7.36104 13.8348 7.25439 14.3355 6.90161C14.2435 6.69873 14.1482 6.4799 13.9453 6.36415C13.6768 6.21621 13.3464 6.12225 13.0466 6.23572C12.0637 6.55599 11.2135 7.20009 10.1961 7.42932C10.2556 7.16465 10.3707 6.90096 10.3346 6.62427C10.2982 6.24743 10.0592 5.93172 9.80791 5.66477C10.5515 5.45278 11.1751 4.98035 11.842 4.60904C12.1486 4.41395 12.5235 4.24358 12.6805 3.89503C12.6851 3.49218 12.4513 3.11273 12.1424 2.86823C11.8121 2.65559 11.4167 2.5678 11.0269 2.56227ZM7.37324 3.13159C6.72361 3.79586 5.7872 4.04849 4.89469 4.16815C4.55654 4.25171 4.28537 3.97794 4.05094 3.77765C4.06623 4.00557 4.07696 4.23382 4.08573 4.46207C4.52175 4.84151 5.09237 5.02912 5.66267 5.07074C5.44093 5.27265 5.18894 5.44888 4.89956 5.53732C4.63197 5.6147 4.35398 5.64852 4.07728 5.67225C4.12963 6.17265 4.11142 6.75563 4.48078 7.14872C4.56044 7.24561 4.69407 7.18839 4.78739 7.14677C5.27673 6.88601 5.66527 6.47795 6.13315 6.18403C6.50284 5.94895 6.87643 5.69826 7.30464 5.58349C7.06891 6.09786 6.7106 6.54981 6.28142 6.91624C6.02423 7.13864 5.68706 7.217 5.3837 7.35291C4.15141 7.88907 2.91782 8.42328 1.66668 8.91522C1.69106 9.12526 1.67903 9.3909 1.86989 9.53039C2.29323 9.73425 2.78289 9.8009 3.24654 9.73295C3.51901 9.6133 3.7154 9.3792 3.92999 9.18248C4.22002 8.90286 4.58353 8.72306 4.9285 8.52342C5.29949 8.30948 5.68738 8.10236 6.11657 8.03929C6.13966 8.23405 6.16014 8.42945 6.17249 8.62519C5.52741 8.90546 4.8612 9.16818 4.15759 9.25076C4.23302 9.58208 4.42681 9.89292 4.73374 10.0542C4.5289 10.392 4.24473 10.6746 4.03111 11.0043C3.99242 11.3902 4.02071 11.8103 4.20799 12.1595C4.54516 12.0733 4.82576 11.8568 5.11253 11.6708C5.48319 12.3048 5.88117 12.9743 6.53308 13.3544C6.7093 13.4184 6.78474 13.1866 6.84066 13.0692C7.11508 12.3864 6.88391 11.6389 6.94666 10.9278C6.98698 10.4219 6.96389 9.9069 7.0481 9.40748C7.23278 9.25922 7.46884 9.18248 7.6649 9.04722C7.98028 8.79394 8.43841 8.9861 8.75737 8.74192C8.83508 8.68989 8.8884 8.61283 8.9466 8.54195C8.74274 8.36248 8.52034 8.18397 8.25015 8.1209C7.89217 8.03733 7.48477 7.97263 7.1593 8.1895C7.1554 8.03408 7.13914 7.87801 7.09817 7.72812C7.64409 7.53401 8.23162 7.53206 8.79249 7.40071C8.79021 7.15295 8.8133 6.89836 8.74307 6.65743C8.67641 6.49421 8.47743 6.46365 8.33014 6.4165C8.4098 6.03413 8.35452 5.61925 8.17699 5.27135C8.05182 4.981 7.66945 5.04278 7.41551 4.98458C7.74878 4.62497 8.1344 4.32096 8.50636 4.00362C8.64747 3.87714 8.5301 3.65865 8.51937 3.50258C8.47678 3.25059 8.23292 3.10168 8.00402 3.0386C7.79625 2.98951 7.51956 2.93163 7.37324 3.13159ZM8.14903 9.81521C7.86388 9.74953 7.57516 9.70076 7.2835 9.67702C7.1619 9.90007 7.30269 10.1397 7.40056 10.3416C7.56768 10.7103 7.90127 11.0043 8.30347 11.0826C8.60228 10.538 8.62471 9.89422 8.69202 9.29076C8.49823 9.4517 8.32006 9.6302 8.14903 9.81521Z" fill="#FEDB02"/>
<path d="M5.40158 10.2255C5.66787 10.1439 5.90653 9.99206 6.16014 9.87988C6.15981 9.96897 6.15884 10.1475 6.15819 10.2366C5.68218 10.5051 5.19057 10.7474 4.67847 10.9395C4.74707 10.6687 4.80039 10.3946 4.83844 10.1179C5.02117 10.168 5.20942 10.2502 5.40158 10.2255Z" fill="#FEDB02"/>
<path d="M5.29169 11.5105C5.59569 11.2188 5.91466 10.9314 6.1312 10.5649C6.13348 10.8377 6.14031 11.1105 6.126 11.3833C6.11625 11.5514 5.93612 11.6756 5.77192 11.6431C5.59862 11.6587 5.44548 11.5729 5.29169 11.5105Z" fill="#FEDB02"/>
<path d="M5.43214 1.46455C5.98521 1.44862 6.54803 1.50227 7.06891 1.69865C7.36251 1.8196 7.66522 2.01924 7.73967 2.35056C7.7465 2.56515 7.60279 2.75179 7.42884 2.86071C7.1619 3.04246 6.82635 3.05514 6.52267 3.13545C6.00894 3.25738 5.50237 3.41085 4.98442 3.51554C5.37004 3.16146 5.78459 2.82917 6.0899 2.39868C5.7446 2.20262 5.43962 1.88333 5.43214 1.46455Z" fill="#0E1E8B"/>
<path d="M11.0269 2.56226C11.4167 2.56778 11.8121 2.65557 12.1424 2.86821C12.4513 3.11272 12.6851 3.49216 12.6805 3.89501C12.5235 4.24356 12.1486 4.41394 11.842 4.60902C11.1751 4.98034 10.5515 5.45277 9.8079 5.66476C10.0592 5.9317 10.2982 6.24741 10.3346 6.62425C10.3707 6.90095 10.2556 7.16464 10.1961 7.42931C11.2135 7.20008 12.0637 6.55597 13.0466 6.23571C13.3464 6.12223 13.6768 6.2162 13.9453 6.36414C14.1482 6.47989 14.2435 6.69871 14.3355 6.9016C13.8348 7.25438 13.2151 7.36103 12.6422 7.54603C12.7095 7.66016 12.7891 7.76973 12.8333 7.89556C12.8688 8.09097 12.8545 8.29256 12.8285 8.48829C12.6175 10.1709 12.6142 11.8688 12.5615 13.5608C12.5323 13.9526 12.4097 14.4475 11.9808 14.572C11.7744 14.2423 11.7269 13.8453 11.724 13.4646C11.7113 12.6836 11.7425 11.9023 11.7032 11.1219C11.6602 10.1114 11.7288 9.09891 11.6648 8.08967C11.1602 8.36051 10.5756 8.5569 10.0017 8.4005C9.94706 9.38243 9.91975 10.3666 9.82676 11.346C9.81636 11.4581 9.71394 11.5215 9.62713 11.5745C9.275 11.133 9.09422 10.5816 9.01651 10.0288C8.98855 9.73781 9.13258 9.46469 9.11763 9.17272C9.16022 8.29256 9.20412 7.41175 9.32279 6.53777C9.36701 6.34366 9.24118 6.17556 9.17193 6.00486C9.12998 5.91707 9.10202 5.81953 9.03959 5.74344C8.84841 5.65761 8.63804 5.62249 8.43906 5.55909C8.44101 5.53926 8.44491 5.49926 8.44718 5.4791C9.15144 5.18745 9.82286 4.7794 10.3259 4.19837C10.6022 3.87583 10.8809 3.55329 11.1212 3.20214C11.154 3.15044 11.1937 3.08801 11.166 3.02526C11.1156 2.87212 11.0678 2.71832 11.0269 2.56226Z" fill="#0E1E8B"/>
<path d="M7.37324 3.13158C7.51955 2.93162 7.79625 2.98949 8.00401 3.03859C8.23291 3.10167 8.47677 3.25058 8.51936 3.50257C8.53009 3.65863 8.64747 3.87713 8.50636 4.00361C8.13439 4.32095 7.74878 4.62496 7.41551 4.98456C7.66944 5.04276 8.05181 4.98099 8.17699 5.27134C8.35452 5.61924 8.40979 6.03412 8.33013 6.41649C8.47742 6.46363 8.67641 6.4942 8.74306 6.65742C8.81329 6.89835 8.79021 7.15293 8.79248 7.40069C8.23161 7.53205 7.64408 7.534 7.09817 7.72811C7.13913 7.878 7.15539 8.03407 7.15929 8.18949C7.48476 7.97262 7.89216 8.03732 8.25014 8.12088C8.52034 8.18396 8.74273 8.36246 8.9466 8.54194C8.8884 8.61282 8.83508 8.68988 8.75737 8.7419C8.4384 8.98608 7.98028 8.79393 7.66489 9.04721C7.46883 9.18247 7.23278 9.2592 7.0481 9.40747C6.96388 9.90689 6.98697 10.4219 6.94665 10.9278C6.8839 11.6389 7.11507 12.3864 6.84065 13.0692C6.78473 13.1866 6.7093 13.4184 6.53307 13.3544C5.88116 12.9743 5.48319 12.3048 5.11253 11.6708C4.82575 11.8568 4.54515 12.0733 4.20798 12.1595C4.0207 11.8103 3.99241 11.3902 4.0311 11.0042C4.24472 10.6745 4.5289 10.392 4.73373 10.0542C4.4268 9.89291 4.23302 9.58207 4.15758 9.25075C4.86119 9.16816 5.52741 8.90545 6.17249 8.62518C6.16013 8.42944 6.13965 8.23403 6.11656 8.03927C5.68738 8.10235 5.29948 8.30946 4.9285 8.52341C4.58352 8.72304 4.22001 8.90285 3.92998 9.18247C3.71539 9.37918 3.51901 9.61328 3.24654 9.73294C2.78288 9.80089 2.29322 9.73424 1.86989 9.53037C1.67903 9.39089 1.69106 9.12525 1.66667 8.9152C2.91782 8.42326 4.15141 7.88906 5.38369 7.3529C5.68705 7.21699 6.02422 7.13863 6.28141 6.91623C6.7106 6.5498 7.0689 6.09785 7.30463 5.58347C6.87642 5.69825 6.50283 5.94893 6.13315 6.18401C5.66527 6.47794 5.27672 6.88599 4.78738 7.14676C4.69407 7.18837 4.56043 7.2456 4.48077 7.14871C4.11141 6.75561 4.12962 6.17263 4.07727 5.67224C4.35397 5.6485 4.63197 5.61469 4.89956 5.5373C5.18893 5.44887 5.44092 5.27264 5.66267 5.07073C5.09237 5.02911 4.52174 4.8415 4.08573 4.46206C4.07695 4.23381 4.06622 4.00556 4.05094 3.77764C4.28536 3.97792 4.55653 4.25169 4.89468 4.16813C5.7872 4.04848 6.7236 3.79584 7.37324 3.13158ZM5.40158 10.2255C5.20942 10.2502 5.02116 10.168 4.83843 10.1179C4.80039 10.3946 4.74707 10.6687 4.67846 10.9395C5.19056 10.7474 5.68217 10.5051 6.15818 10.2366C6.15883 10.1475 6.15981 9.96899 6.16013 9.8799C5.90652 9.99207 5.66787 10.1439 5.40158 10.2255ZM5.29168 11.5105C5.44547 11.5729 5.59861 11.6588 5.77191 11.6431C5.93611 11.6757 6.11624 11.5515 6.12599 11.3834C6.1403 11.1106 6.13347 10.8378 6.1312 10.565C5.91465 10.9314 5.59569 11.2188 5.29168 11.5105Z" fill="#0E1E8B"/>
<path d="M8.14903 9.81523C8.32005 9.63022 8.49823 9.45172 8.69202 9.29077C8.62471 9.89423 8.60228 10.538 8.30347 11.0826C7.90127 11.0043 7.56768 10.7103 7.40055 10.3416C7.30268 10.1397 7.1619 9.90009 7.2835 9.67704C7.57515 9.70078 7.86388 9.74955 8.14903 9.81523Z" fill="#0E1E8B"/>
</g>
<defs>
<clipPath id="clip0_605_563233">
<rect width="15.7055" height="16" fill="white" transform="translate(0.147263)"/>
</clipPath>
</defs>
</svg>
