<svg width="16" height="16" viewBox="0 0 16 16" fill="none" xmlns="http://www.w3.org/2000/svg">
<g clip-path="url(#clip0_605_542283)">
<path d="M16 7.99998C16.0002 9.05067 15.7934 10.0911 15.3915 11.0619C14.9895 12.0327 14.4003 12.9147 13.6574 13.6578C12.9145 14.4008 12.0325 14.9902 11.0618 15.3923C10.0911 15.7944 9.0507 16.0014 8 16.0014C6.9493 16.0014 5.9089 15.7944 4.9382 15.3923C3.9675 14.9902 3.08552 14.4008 2.34264 13.6578C1.59975 12.9147 1.0105 12.0327 0.60855 11.0619C0.206597 10.0911 -0.000189342 9.05067 1.30088e-07 7.99998C-0.000189342 6.94928 0.206597 5.90884 0.60855 4.93807C1.0105 3.9673 1.59975 3.08521 2.34264 2.34219C3.08552 1.59917 3.9675 1.00976 4.9382 0.607637C5.9089 0.205509 6.9493 -0.00146484 8 -0.00146484C9.0507 -0.00146484 10.0911 0.205509 11.0618 0.607637C12.0325 1.00976 12.9145 1.59917 13.6574 2.34219C14.4003 3.08521 14.9895 3.9673 15.3915 4.93807C15.7934 5.90884 16.0002 6.94928 16 7.99998Z" fill="#FF6310"/>
<path d="M4.93054 3.56827C5.16987 3.70837 5.414 3.87058 5.66292 4.0549C5.8161 4.15076 5.96927 4.195 6.12246 4.18762C6.21819 4.18025 6.29478 4.12495 6.35223 4.02172C6.39051 3.90376 6.357 3.73048 6.2517 3.50191C6.12724 3.2586 5.65334 3.09639 4.83002 3.01528C4.67683 2.98579 4.56673 2.98579 4.49972 3.01528C4.44228 3.04478 4.42792 3.11114 4.45664 3.21435C4.49493 3.28809 4.6529 3.40607 4.93054 3.56827ZM3.3078 6.16732C3.50885 6.477 3.71468 6.6982 3.9253 6.83091C4.02104 6.86041 4.11677 6.84935 4.21251 6.79773C4.27952 6.73138 4.31782 6.65027 4.3274 6.55442C4.29867 6.28899 4.04018 6.0641 3.55193 5.87977C3.43704 5.82816 3.34131 5.80604 3.26472 5.81341C3.22642 5.81342 3.20249 5.85028 3.19292 5.92401C3.18334 5.99037 3.22164 6.07148 3.3078 6.16732ZM4.57153 8.97652C4.57152 9.4484 4.57152 10.0678 4.57153 10.8346C4.56195 11.041 4.51408 11.1885 4.42792 11.277C4.33218 11.3212 4.16464 11.3175 3.9253 11.2659C3.78169 11.2364 3.62852 11.2143 3.46577 11.1995C3.37003 11.17 3.31737 11.1811 3.3078 11.2327C3.31738 11.2843 3.36524 11.3396 3.45141 11.3986C3.91094 11.7157 4.28431 12.0032 4.57153 12.2613C4.66726 12.3276 4.77257 12.3055 4.88746 12.1949C5.24168 11.841 5.39964 11.4097 5.36135 10.9009C5.3039 9.81706 5.28476 9.13135 5.30391 8.8438C5.50495 8.79219 5.71557 8.75164 5.93577 8.72214C6.33786 8.64841 6.56763 8.58574 6.62508 8.53412C6.69208 8.48251 6.70644 8.4309 6.66816 8.37929C6.60113 8.30556 6.44796 8.24657 6.20862 8.20233C6.03629 8.18021 5.74429 8.22077 5.33263 8.32399C5.39007 7.97008 5.39964 7.76732 5.36135 7.7157C5.29433 7.64197 5.12679 7.54612 4.85874 7.42814C5.03106 7.38391 5.78259 7.26962 7.11333 7.08529C7.19949 7.09267 7.27608 7.0558 7.3431 6.97469C7.35266 6.90096 7.26172 6.83461 7.07025 6.77561C6.8309 6.6429 6.35222 6.67239 5.6342 6.86409C5.62461 6.8641 5.61026 6.86779 5.59112 6.87515C5.62941 6.82354 5.68685 6.75719 5.76345 6.67607C5.91662 6.49175 6.07937 6.2853 6.2517 6.05673C6.31871 5.96088 6.42402 5.84659 6.56763 5.71387C6.69208 5.64014 6.71602 5.5701 6.63944 5.50373C6.57241 5.39314 6.41445 5.27517 6.16554 5.14982C6.10809 5.12033 6.05065 5.10559 5.99321 5.10558C6.0315 5.08347 6.07458 5.07241 6.12246 5.0724C6.44796 4.99868 6.63464 4.94338 6.68252 4.9065C6.74953 4.8549 6.76389 4.80329 6.7256 4.75166C6.65858 4.67794 6.5054 4.62264 6.26606 4.58577C6.02672 4.55628 5.78259 4.58578 5.53368 4.67425C5.1603 4.78485 4.77257 4.88808 4.37048 4.98392C3.93009 5.07978 3.44662 5.1572 2.92007 5.21618C2.62328 5.2678 2.58499 5.34153 2.80519 5.43737C3.12111 5.5701 3.66681 5.55535 4.44228 5.39314C4.82522 5.30466 5.24646 5.22724 5.706 5.16088C5.69642 5.18301 5.706 5.21619 5.73473 5.26042C5.80173 5.46688 5.65813 5.93139 5.30391 6.65395C5.23689 6.77193 5.19381 6.87884 5.17467 6.97469C5.03106 6.99681 4.89224 7.02631 4.75821 7.06317C4.0689 7.20326 3.03495 7.36548 1.65635 7.5498C1.42658 7.5793 1.40743 7.64566 1.5989 7.74888C1.88611 7.90372 2.13981 7.95533 2.36001 7.90371C2.944 7.771 3.60937 7.64197 4.35612 7.51662C4.49972 7.84842 4.57152 8.1839 4.57153 8.52306C3.33652 8.72952 2.5802 8.85118 2.30257 8.88804C2.00578 8.93228 1.9627 9.00601 2.17332 9.10923C2.43181 9.21983 2.91049 9.23089 3.60937 9.14241C3.90615 9.07606 4.22687 9.02076 4.57153 8.97652ZM2.67594 9.76176C2.4366 10.1378 2.16375 10.4917 1.85739 10.8235C1.64677 11.0447 1.61805 11.2696 1.77123 11.4982C1.82867 11.6161 1.95313 11.6382 2.1446 11.5645C2.60414 11.3359 2.87698 10.9341 2.96315 10.359C3.03016 10.1378 3.03495 9.94609 2.97751 9.78388C2.93921 9.71753 2.89613 9.68066 2.84827 9.67328C2.78125 9.68066 2.72381 9.71015 2.67594 9.76176ZM5.90705 9.82812C6.17511 10.1009 6.41924 10.2816 6.63944 10.3701C6.75431 10.3922 6.84526 10.3664 6.91229 10.2926C6.95057 10.2189 6.96972 10.1341 6.96973 10.0383C6.93143 9.90554 6.85005 9.79863 6.7256 9.71752C6.4671 9.55532 6.17032 9.47421 5.83525 9.47421C5.80652 9.47421 5.78737 9.47789 5.77781 9.48527C5.73951 9.49264 5.72515 9.52951 5.73473 9.59587C5.7443 9.66223 5.80174 9.73965 5.90705 9.82812ZM9.43973 8.76638C9.43972 8.79588 9.45408 8.8438 9.48281 8.91016C9.59769 9.1756 9.64077 9.42997 9.61206 9.67328C9.49716 11.2438 9.6312 12.1691 10.0142 12.4493C10.713 12.8917 11.7613 12.9912 13.1591 12.7479C13.1687 12.7405 13.1926 12.7369 13.2309 12.7369C13.5564 12.6631 13.8723 12.5415 14.1787 12.3719C14.3606 12.2613 14.3941 12.1101 14.2792 11.9184C14.1643 11.7341 14.0255 11.3581 13.8628 10.7903C13.8627 10.6724 13.8292 10.5913 13.7622 10.547C13.7048 10.5175 13.6521 10.5728 13.6043 10.7129C13.3075 11.3175 13.0681 11.712 12.8863 11.8963C12.7905 11.97 12.6134 12.0401 12.3549 12.1064C11.723 12.2244 11.1678 12.2134 10.6891 12.0733C10.488 12.0069 10.3636 11.9295 10.3157 11.841C10.0572 11.4207 10.0668 10.536 10.3444 9.18665C10.4114 8.96546 10.2535 8.81431 9.87055 8.7332C10.0237 8.70371 10.1913 8.68528 10.3732 8.6779C10.5263 8.85486 10.6699 9.02813 10.804 9.19771C10.9763 9.39679 11.1008 9.48527 11.1774 9.46315C11.2731 9.45577 11.388 9.34518 11.522 9.13135C11.6082 8.97652 11.6512 8.6226 11.6512 8.06961C11.5651 6.12309 11.6369 5.00236 11.8667 4.70743C11.9815 4.56734 11.9959 4.44569 11.9097 4.34245C11.8236 4.25398 11.5124 4.14707 10.9763 4.02172C10.7178 3.948 10.4976 3.95168 10.3157 4.03278C9.51153 4.28347 8.78393 4.45306 8.13293 4.54153C8.04676 4.47518 7.90794 4.41619 7.71647 4.36457C7.6303 4.33509 7.53935 4.33509 7.44363 4.36457C7.38618 4.39407 7.38139 4.44937 7.42926 4.53047C7.6303 5.02448 7.73561 5.69544 7.74519 6.54336C7.74519 7.22907 7.68774 7.76363 7.57287 8.14703C7.4867 8.50095 7.59679 8.82906 7.90316 9.13135C7.91272 9.13873 7.94145 9.14979 7.98932 9.16453C7.98932 9.17191 8.00846 9.22352 8.04676 9.31937C8.21908 9.85762 7.46276 10.8088 5.77781 12.1728C5.69164 12.217 5.62941 12.276 5.59112 12.3498C5.59111 12.3793 5.61505 12.394 5.66292 12.394C6.36179 12.2834 7.28087 11.5645 8.42014 10.2373C8.42013 10.1636 8.56373 9.99771 8.85095 9.73964C8.90839 9.67329 8.9036 9.59587 8.83659 9.50739C8.7217 9.34518 8.60203 9.23089 8.47758 9.16453C8.38183 9.09818 8.27653 9.06868 8.16165 9.07605C8.19994 9.02445 8.23344 8.97283 8.26217 8.92122C8.5015 8.85486 8.89402 8.80325 9.43973 8.76638ZM10.3875 8.29081C10.2439 8.2392 10.0476 8.2392 9.79874 8.29081C9.24346 8.40878 8.74564 8.50463 8.30526 8.57836C8.31482 8.43828 8.31961 8.25395 8.31961 8.02537C8.31003 7.86317 8.30525 7.70464 8.30526 7.5498C8.31482 7.54243 8.32918 7.54243 8.34834 7.5498C8.55895 7.5793 9.19559 7.49819 10.2583 7.30648C10.2583 7.29911 10.2678 7.29543 10.287 7.29542C10.354 7.25119 10.3684 7.20695 10.3301 7.16271C10.2918 7.1111 10.1721 7.06317 9.97107 7.01893C9.87532 6.99681 9.49716 7.05211 8.83659 7.18482C8.66426 7.20695 8.48715 7.23276 8.30526 7.26224C8.30525 6.85672 8.30525 6.51018 8.30526 6.22262C8.47757 6.22263 9.12379 6.12309 10.2439 5.92401C10.2343 5.92401 10.2343 5.92401 10.2439 5.92401C10.3014 5.87977 10.3109 5.83553 10.2726 5.79129C10.2343 5.73968 10.1147 5.69544 9.91363 5.65857C9.82745 5.65121 9.4493 5.71019 8.77915 5.83553C8.60682 5.85766 8.44885 5.88715 8.30526 5.92401C8.30525 5.26043 8.31481 4.90651 8.33397 4.86226C8.73606 4.79591 9.2291 4.70006 9.81311 4.57471C10.2248 4.48624 10.4976 4.49361 10.6317 4.59683C10.7274 4.67057 10.78 4.86596 10.7896 5.183C10.8279 6.4512 10.8183 7.43552 10.7609 8.13597C10.7896 8.29081 10.7322 8.37929 10.5886 8.4014C10.5311 8.37192 10.4641 8.33505 10.3875 8.29081Z" fill="white"/>
</g>
<defs>
<clipPath id="clip0_605_542283">
<rect width="16" height="16" fill="white"/>
</clipPath>
</defs>
</svg>
