<?xml version="1.0" encoding="UTF-8"?>
<!-- Generator: Adobe Illustrator 16.0.0, SVG Export Plug-In . SVG Version: 6.00 Build 0)  -->
<svg id="New_Power_Party_logo" width="99.967" height="99.968" enable-background="new 0 0 401.016 100.633" version="1.1" viewBox="0 0 99.967 99.968" xml:space="preserve" xmlns="http://www.w3.org/2000/svg"><defs><clipPath id="clipPath1293"><ellipse cx="49.998" cy="50.342" rx="49.984" ry="49.984" stroke-width="1.3314"/></clipPath></defs>
<g transform="translate(-.014 -.358)" clip-path="url(#clipPath1293)">
	<rect x=".016" y=".4" width="99.965" height="99.926" fill="#ffbe00"/>
	
	
	
	
	<path d="m80.42 41.064c4.891-0.145 9.638 6.473 3.74 12.803-5.897 6.184-21.864 19.273-29.343 19.561-7.192 0.287-13.952-4.025-13.952-4.025 3.74 4.75 9.35 7.057 13.233 7.479 6.328 0.576 13.521-3.735 13.521-3.735s0.718-0.287 0.43 0.571c-0.72 2.017-6.472 6.041-13.521 6.041-7.192-0.145-16.686-6.901-16.686-6.901 4.603 5.896 10.501 9.353 16.398 10.5 9.207 1.867 16.685-4.894 16.685-4.894s0.432 0.72-0.145 1.295c-3.739 4.313-11.218 6.765-16.253 6.328-11.794-1.008-18.843-9.063-18.843-9.063 3.452 7.625 14.815 11.938 19.418 13.096 7.049 1.729 13.666-0.438 25.316-8.635 6.761-4.893 13.808-11.221 19.56-17.109v-36.18c-4.006-1.829-9.136-2.951-15.532-2.667-7.191 0.144-15.104 0.431-22.87 0.574l7.192-11.075s3.739-5.897 13.952-14.67h-29.915l-13.954 26.178c-12.944 0.145-24.595 0.287-32.508 0.287h-6.329v17.261c4.891-0.287 9.493-0.576 14.815-0.719 2.158-0.146 7.911-0.288 15.247-0.575l-30.06 56.241v1.295h0.574l25.46-39.268-21.288 39.268h2.445l24.165-35.961-20.856 35.959h2.013l38.261-58.254c15.391-0.574 29.63-1.006 29.63-1.006z"/>
	
	
	
	
	
	
	
	
	
	
	
	
	
</g>
</svg>
