<svg width="16" height="16" viewBox="0 0 16 16" fill="none" xmlns="http://www.w3.org/2000/svg">
<g clip-path="url(#clip0_605_542275)">
<path d="M8 16C12.4183 16 16 12.4183 16 8C16 3.58172 12.4183 0 8 0C3.58172 0 0 3.58172 0 8C0 12.4183 3.58172 16 8 16Z" fill="#28C8C8"/>
<path d="M3.33147 6.22499H12.5166C12.5562 6.22499 12.5892 6.192 12.5892 6.15241V2.45723C12.5892 2.41764 12.5562 2.38464 12.5166 2.38464H3.33147C3.29188 2.38464 3.25889 2.41764 3.25889 2.45723V6.15241C3.25889 6.192 3.29188 6.22499 3.33147 6.22499ZM9.83762 3.51299C9.83762 3.4734 9.87062 3.44041 9.91021 3.44041H10.9891C11.0287 3.44041 11.0617 3.4734 11.0617 3.51299V5.07684C11.0617 5.11644 11.0287 5.14943 10.9891 5.14943H9.90691C9.86732 5.14943 9.83432 5.11644 9.83432 5.07684V3.51299H9.83762ZM7.31038 3.51299C7.31038 3.4734 7.34338 3.44041 7.38297 3.44041H8.46513C8.50472 3.44041 8.53771 3.4734 8.53771 3.51299V5.07684C8.53771 5.11644 8.50472 5.14943 8.46513 5.14943H7.38297C7.34338 5.14943 7.31038 5.11644 7.31038 5.07684V3.51299ZM4.78645 3.51299C4.78645 3.4734 4.81944 3.44041 4.85903 3.44041H5.94119C5.98078 3.44041 6.01377 3.4734 6.01377 3.51299V5.07684C6.01377 5.11644 5.98078 5.14943 5.94119 5.14943H4.85903C4.81944 5.14943 4.78645 5.11644 4.78645 5.07684V3.51299ZM12.8334 8.17815V7.0828C12.8334 7.04321 12.8004 7.01021 12.7608 7.01021H3.07743C3.03783 7.01021 3.00484 7.04321 3.00484 7.0828V8.17815C3.00484 8.21774 3.03783 8.25074 3.07743 8.25074H6.94746C6.98706 8.25074 7.02005 8.28373 7.02005 8.32332V13.5428C7.02005 13.5824 7.05304 13.6153 7.09263 13.6153H8.75546C8.79505 13.6153 8.82805 13.5824 8.82805 13.5428V8.32002C8.82805 8.28043 8.86104 8.24744 8.90063 8.24744H12.7674C12.8004 8.24744 12.8334 8.21774 12.8334 8.17815ZM6.63403 12.0218C6.46247 11.9492 5.8818 11.6556 5.41001 10.9165C5.60136 10.0752 5.62116 9.3131 5.62116 9.09865C5.62116 9.06566 5.59807 9.03596 5.56177 9.02936L4.45652 8.82811C4.41363 8.82151 4.37404 8.8512 4.37404 8.89409C4.34764 9.35599 4.16288 11.649 2.92896 12.0251C2.89597 12.035 2.87287 12.068 2.87947 12.1043L3.12032 13.5395C3.12692 13.5791 3.16321 13.6054 3.2028 13.5988C3.97153 13.4768 4.50601 12.9885 4.86233 12.3979C4.88872 12.3517 4.95471 12.3517 4.9811 12.3979C5.50239 13.2029 6.14574 13.4966 6.37009 13.5824C6.41298 13.5988 6.45917 13.5725 6.46577 13.5263L6.67693 12.0977C6.68022 12.0647 6.66373 12.035 6.63403 12.0218ZM13.0742 12.0284C12.8729 11.9591 12.1603 11.6655 11.6852 10.9198C11.9129 9.92676 11.8964 9.04256 11.8964 9.04256L10.6525 8.81821C10.6525 8.81821 10.5767 11.6952 9.14148 12.0449L9.40542 13.612C10.2071 13.5098 10.7647 13.0116 11.1309 12.4078C11.1573 12.3616 11.2266 12.3616 11.253 12.4078C11.6951 13.1534 12.5496 13.4966 12.8169 13.5856C12.8597 13.5988 12.9026 13.5725 12.9092 13.5296L13.1204 12.1043C13.127 12.0713 13.1072 12.0383 13.0742 12.0284Z" fill="white"/>
</g>
<defs>
<clipPath id="clip0_605_542275">
<rect width="16" height="16" fill="white"/>
</clipPath>
</defs>
</svg>
