<svg width="16" height="16" viewBox="0 0 16 16" fill="none" xmlns="http://www.w3.org/2000/svg">
<g clip-path="url(#clip0_605_563199)">
<path d="M8 16.0001C12.4027 16.0001 15.9718 12.4184 15.9718 8.00012C15.9718 3.58184 12.4027 0.00012207 8 0.00012207C3.59727 0.00012207 0.0281525 3.58184 0.0281525 8.00012C0.0281525 12.4184 3.59727 16.0001 8 16.0001Z" fill="white"/>
<path d="M0.0614873 8.89147C0.963392 8.52907 1.90099 8.25233 2.93852 8.10407C2.86466 5.60096 4.70883 3.23917 7.47163 2.92663C7.69533 2.41893 8.11171 2.17882 8.64924 1.92856C9.00289 1.76391 9.26364 1.13947 9.76989 1.18923C10.1841 1.22994 10.1877 1.5034 10.5498 1.70928C10.743 1.81906 10.9813 1.76949 11.2007 2.15387C11.4765 2.63702 10.6211 3.21981 11.1507 4.00557C12.6002 5.15081 13.4339 7.13392 12.8645 9.3795C13.9537 9.1972 14.993 8.85787 15.9609 8.36149C16.1979 3.84021 12.5599 0.0300566 8.01412 0C3.65551 0 -0.381109 3.61198 0.0614873 8.89147Z" fill="#F38C01"/>
<path d="M7.23357 14.2851C7.21927 14.2584 7.18732 14.1192 7.16258 13.9758C7.0865 13.535 6.95091 13.2612 6.5793 12.798C6.46035 12.6367 6.35422 12.5232 6.24931 12.4062C6.04391 12.1755 5.66101 11.6226 5.49836 11.2973C5.45172 11.204 5.34221 11.0031 5.25498 10.8508C4.96923 10.3518 4.98428 10.3954 4.98405 10.0677C4.98394 9.90449 4.99921 9.6501 5.01801 9.50241C5.05327 9.22543 5.04851 9.15956 4.95494 8.62855C4.91533 8.40376 4.91341 8.33348 4.94256 8.1763C5.04224 7.63891 5.39381 6.9152 6.00788 5.98335C6.3597 5.44946 6.40338 5.35465 6.49638 4.92296C6.59704 4.45573 6.63813 4.39881 7.30097 3.80838C7.55407 3.58294 7.66219 3.42758 7.73903 3.17893C7.86987 2.75557 8.00142 2.62472 8.61546 2.30718C8.83368 2.19433 8.93246 2.1199 9.14279 1.90984C9.41813 1.63487 9.5321 1.55963 9.67269 1.56006C9.78498 1.5604 10.0054 1.68867 10.1795 1.85507C10.3664 2.0336 10.4146 2.06012 10.594 2.08315C10.8057 2.11033 10.9285 2.16556 10.9597 2.24761C10.9911 2.33023 10.9235 2.61342 10.8066 2.88828C10.6266 3.3118 10.6139 3.45678 10.7236 3.83509C10.7638 3.97362 10.7964 4.13843 10.7962 4.20132C10.7956 4.32963 10.709 4.57538 10.5462 4.91026C10.2778 5.46212 10.2363 5.71145 10.337 6.16576C10.3695 6.31271 10.3962 6.5188 10.3962 6.62373C10.3962 6.79165 10.3827 6.84019 10.2832 7.02905C10.2044 7.17861 10.1612 7.30531 10.1404 7.44731C10.1066 7.67803 10.0894 7.76802 9.98795 8.2446C9.7927 9.16212 9.73028 9.35307 9.45013 9.88979C9.25672 10.2603 8.98928 10.6831 8.52426 11.3533C8.0547 12.0301 7.89818 12.4313 7.86244 13.0498C7.84716 13.3143 7.854 13.4027 7.9081 13.6401C7.97742 13.9444 7.97602 14.1959 7.9046 14.2674C7.8678 14.3042 7.85066 14.304 7.75956 14.2659C7.6334 14.2132 7.52202 14.2112 7.42831 14.2598C7.29067 14.3312 7.26035 14.3352 7.23357 14.2851Z" fill="#AB6300"/>
<path d="M4.20215 8.2596C2.65051 8.2542 1.54857 8.53558 0.113083 9.10271C0.184505 9.6153 0.305329 10.1197 0.473856 10.6089C1.7773 10.0783 3.12602 9.79803 4.76569 9.85053C4.90702 9.07659 4.5739 8.80236 4.70513 8.2707C4.53193 8.26386 4.36457 8.26016 4.20215 8.2596ZM15.9431 8.57604C14.3348 9.40425 12.1977 9.94704 9.91179 9.63352C9.75359 10.0935 9.49548 10.5607 9.18025 11.0135C10.9084 11.4841 13.2185 11.4799 15.5899 10.4353C15.7805 9.83178 15.8991 9.20765 15.9431 8.57604ZM4.23229 10.1166C2.78206 10.1198 1.6656 10.3898 0.538445 10.8039C0.720641 11.2907 0.949708 11.7586 1.22239 12.2008C2.62128 11.7288 3.92191 11.6594 5.37715 11.7647C5.03898 10.9487 4.62508 10.794 4.69574 10.1244C4.53741 10.1188 4.38303 10.1162 4.23229 10.1166ZM15.5104 10.654C13.5034 11.5714 11.1238 11.886 8.94226 11.2804C8.69702 11.6846 8.31613 12.1531 8.1851 12.5573C9.89146 13.2604 12.3688 13.4328 14.4131 12.7369C14.8793 12.1007 15.2491 11.3988 15.5104 10.654ZM4.07572 12.1064C3.15778 12.1098 2.2178 12.2315 1.40778 12.485C1.74345 12.9803 2.1335 13.4362 2.57058 13.8441C4.17291 13.526 5.42917 13.6518 6.89819 14.0601C6.59198 13.0961 6.03343 12.7276 5.69188 12.2279C5.1843 12.1459 4.63414 12.1043 4.07572 12.1064ZM8.09611 12.9701C8.01199 13.4984 8.22061 13.7996 8.23744 14.555C9.31117 14.949 10.0366 15.1357 11.5495 15.1596C12.5259 14.6732 13.3925 13.9911 14.0957 13.1554C12.3005 13.6916 10.1306 13.785 8.09611 12.9701ZM4.31294 14.0073C3.83481 14.0088 3.34971 14.0446 2.85716 14.1121C4.29172 15.3275 6.10773 15.9959 7.9852 15.9993C7.99363 15.9994 8.00232 15.9997 8.01071 15.9997C9.00287 15.9981 9.98602 15.8106 10.9096 15.4469C9.95661 15.395 8.90515 15.1166 7.86358 14.7286C7.2813 14.5117 7.11727 15.0792 7.02158 14.4013C6.14185 14.13 5.24043 14.0044 4.31294 14.0073Z" fill="#025DAC"/>
</g>
<defs>
<clipPath id="clip0_605_563199">
<rect width="15.9437" height="16" fill="white" transform="translate(0.0281525)"/>
</clipPath>
</defs>
</svg>
