<svg xmlns="http://www.w3.org/2000/svg" width="120" height="122" viewBox="0 0 120 122" fill="none">
  <g clip-path="url(#clip0_1606_597609)">
    <path d="M54.7756 13H5.05406C4.20892 13 3.5238 13.6851 3.5238 14.5303V78.5433C3.5238 79.3884 4.20892 80.0735 5.05406 80.0735H54.7756C55.6207 80.0735 56.3059 79.3884 56.3059 78.5433V14.5303C56.3059 13.6851 55.6207 13 54.7756 13Z" fill="#B4B4B4"/>
    <path d="M10.4607 19.625H50.3449" stroke="white" stroke-width="2" stroke-miterlimit="10" stroke-linecap="round"/>
    <path d="M10.4607 25.0977H50.3449" stroke="white" stroke-width="2" stroke-miterlimit="10" stroke-linecap="round"/>
    <path d="M10.4607 30.5703H50.3449" stroke="white" stroke-width="2" stroke-miterlimit="10" stroke-linecap="round"/>
    <path d="M10.4607 36.043H50.3449" stroke="white" stroke-width="2" stroke-miterlimit="10" stroke-linecap="round"/>
    <path d="M10.4607 41.5156H50.3449" stroke="white" stroke-width="2" stroke-miterlimit="10" stroke-linecap="round"/>
    <path d="M10.4607 46.9902H50.3449" stroke="white" stroke-width="2" stroke-miterlimit="10" stroke-linecap="round"/>
    <path d="M10.4607 52.4629H50.3449" stroke="white" stroke-width="2" stroke-miterlimit="10" stroke-linecap="round"/>
    <path d="M10.4607 57.9316H50.3449" stroke="white" stroke-width="2" stroke-miterlimit="10" stroke-linecap="round"/>
    <path d="M10.4607 63.4043H50.3449" stroke="white" stroke-width="2" stroke-miterlimit="10" stroke-linecap="round"/>
    <path d="M10.4607 68.877H50.3449" stroke="white" stroke-width="2" stroke-miterlimit="10" stroke-linecap="round"/>
    <path d="M10.4607 74.3516H50.3449" stroke="white" stroke-width="2" stroke-miterlimit="10" stroke-linecap="round"/>
    <path d="M92.6298 44.0059H42.9083C42.0632 44.0059 41.3781 44.691 41.3781 45.5361V109.549C41.3781 110.394 42.0632 111.079 42.9083 111.079H92.6298C93.475 111.079 94.1601 110.394 94.1601 109.549V45.5361C94.1601 44.691 93.475 44.0059 92.6298 44.0059Z" fill="white" stroke="black" stroke-width="2" stroke-miterlimit="10"/>
    <path d="M48.3188 50.6309H88.203" stroke="black" stroke-width="2" stroke-miterlimit="10" stroke-linecap="round"/>
    <path d="M48.3188 56.1035H88.203" stroke="black" stroke-width="2" stroke-miterlimit="10" stroke-linecap="round"/>
    <path d="M48.3188 61.5762H88.203" stroke="black" stroke-width="2" stroke-miterlimit="10" stroke-linecap="round"/>
    <path d="M48.3188 67.0449H88.203" stroke="black" stroke-width="2" stroke-miterlimit="10" stroke-linecap="round"/>
    <path d="M48.3188 72.5176H88.203" stroke="black" stroke-width="2" stroke-miterlimit="10" stroke-linecap="round"/>
    <path d="M48.3188 77.9922H88.203" stroke="black" stroke-width="2" stroke-miterlimit="10" stroke-linecap="round"/>
    <path d="M48.3188 83.4648H88.203" stroke="black" stroke-width="2" stroke-miterlimit="10" stroke-linecap="round"/>
    <path d="M48.3188 88.9375H88.203" stroke="black" stroke-width="2" stroke-miterlimit="10" stroke-linecap="round"/>
    <path d="M48.3188 94.4102H88.203" stroke="black" stroke-width="2" stroke-miterlimit="10" stroke-linecap="round"/>
    <path d="M48.3188 99.8828H88.203" stroke="black" stroke-width="2" stroke-miterlimit="10" stroke-linecap="round"/>
    <path d="M48.3188 105.357H88.203" stroke="black" stroke-width="2" stroke-miterlimit="10" stroke-linecap="round"/>
    <path d="M92.9772 31.2462C92.3487 30.6177 91.3377 30.6099 90.6975 31.2267L88.5934 33.3308V22.619C88.5934 20.4642 87.7346 18.3952 86.2082 16.8728C84.6819 15.3503 82.6168 14.4915 80.4619 14.4876H69.7502L71.8543 12.3835C72.471 11.7433 72.4593 10.7322 71.8347 10.1037C71.2063 9.47525 70.1913 9.46745 69.555 10.0842L64.6832 14.9561C64.6051 15.0341 64.5348 15.12 64.4724 15.2137C64.4528 15.241 64.4411 15.2762 64.4216 15.3035C64.3865 15.3659 64.3513 15.4245 64.324 15.4909C64.3045 15.5338 64.2967 15.5807 64.2811 15.6275C64.2655 15.6821 64.242 15.7368 64.2303 15.7954C64.2147 15.8734 64.2108 15.9515 64.2069 16.0296C64.2069 16.0569 64.1991 16.0842 64.1991 16.1116C64.1991 16.1467 64.2069 16.1779 64.2108 16.2131C64.2147 16.2833 64.2186 16.3536 64.2303 16.4239C64.242 16.4863 64.2655 16.5488 64.285 16.6073C64.2967 16.6464 64.3045 16.6854 64.3201 16.7244C64.3474 16.7947 64.3865 16.8572 64.4216 16.9196C64.4372 16.947 64.4489 16.9782 64.4684 17.0055C64.5309 17.0953 64.5973 17.1812 64.6753 17.2592L69.555 22.1389C69.8595 22.4434 70.2733 22.6151 70.7066 22.6151C71.3624 22.6151 71.9558 22.217 72.2095 21.6119C72.4593 21.0029 72.3227 20.3041 71.8582 19.8396L69.7541 17.7355H80.4698C83.1633 17.7355 85.3494 19.9216 85.3494 22.6151V33.3308L83.2453 31.2267C82.609 30.6099 81.594 30.6216 80.9655 31.2462C80.337 31.8747 80.3292 32.8897 80.946 33.526L85.8256 38.4056C85.8998 38.4798 85.9818 38.5501 86.0716 38.6086C86.1028 38.6321 86.1418 38.6438 86.1731 38.6633C86.2316 38.6984 86.2863 38.7335 86.3487 38.757C86.3956 38.7765 86.4424 38.7843 86.4893 38.7999C86.5439 38.8155 86.5986 38.8389 86.6532 38.8507C86.7586 38.8702 86.8679 38.8819 86.9772 38.8819C87.4105 38.8819 87.8243 38.7101 88.1288 38.4056C88.1327 38.4017 88.1366 38.3939 88.1444 38.3861L93.0085 33.5221C93.6252 32.8858 93.6174 31.8708 92.9889 31.2423L92.9772 31.2462Z" fill="url(#paint0_linear_1606_597609)"/>
    <path d="M2.77428 93.7939C3.40277 94.4224 4.41383 94.4302 5.05404 93.8134L7.15814 91.7093V102.421C7.15814 104.576 8.01696 106.645 9.54331 108.167C11.0697 109.69 13.1347 110.549 15.2896 110.552H26.0013L23.8972 112.657C23.2805 113.297 23.2922 114.308 23.9168 114.936C24.5453 115.565 25.5602 115.573 26.1965 114.956L31.0684 110.084C31.1464 110.006 31.2167 109.92 31.2792 109.826C31.2987 109.799 31.3104 109.764 31.3299 109.737C31.365 109.674 31.4002 109.616 31.4275 109.549C31.447 109.506 31.4548 109.459 31.4704 109.413C31.4861 109.358 31.5095 109.303 31.5212 109.245C31.5368 109.167 31.5407 109.089 31.5446 109.011C31.5446 108.983 31.5524 108.956 31.5524 108.929C31.5524 108.893 31.5446 108.862 31.5407 108.827C31.5368 108.757 31.5329 108.686 31.5212 108.616C31.5095 108.554 31.4861 108.491 31.4665 108.433C31.4548 108.394 31.447 108.355 31.4314 108.316C31.4041 108.245 31.365 108.183 31.3299 108.12C31.3143 108.093 31.3026 108.062 31.2831 108.035C31.2206 107.945 31.1542 107.859 31.0762 107.781L26.1965 102.901C25.892 102.597 25.4782 102.425 25.0449 102.425C24.3891 102.425 23.7957 102.823 23.542 103.428C23.2922 104.037 23.4288 104.736 23.8933 105.2L25.9974 107.305H15.2818C12.5882 107.305 10.4021 105.119 10.4021 102.425V91.7093L12.5062 93.8134C13.1425 94.4302 14.1575 94.4184 14.786 93.7939C15.4145 93.1654 15.4223 92.1504 14.8055 91.5141L9.92587 86.6345C9.8517 86.5603 9.76972 86.49 9.67994 86.4315C9.64871 86.408 9.60967 86.3963 9.57844 86.3768C9.51988 86.3417 9.46523 86.3065 9.40277 86.2831C9.35593 86.2636 9.30908 86.2558 9.26224 86.2402C9.20759 86.2246 9.15293 86.2011 9.09828 86.1894C8.99288 86.1699 8.88358 86.1582 8.77428 86.1582C8.34096 86.1582 7.92717 86.33 7.62268 86.6345C7.61878 86.6384 7.61487 86.6462 7.60707 86.654L2.74304 91.518C2.12626 92.1543 2.13407 93.1693 2.76256 93.7978L2.77428 93.7939Z" fill="url(#paint1_linear_1606_597609)"/>
  </g>
  <defs>
    <linearGradient id="paint0_linear_1606_597609" x1="64.1952" y1="24.2547" x2="93.4535" y2="24.2547" gradientUnits="userSpaceOnUse">
      <stop stop-color="#1561A6" stop-opacity="0.3"/>
      <stop offset="1" stop-color="#1561A6"/>
    </linearGradient>
    <linearGradient id="paint1_linear_1606_597609" x1="31.5563" y1="100.789" x2="2.29802" y2="100.789" gradientUnits="userSpaceOnUse">
      <stop stop-color="#1561A6" stop-opacity="0.3"/>
      <stop offset="1" stop-color="#1561A6"/>
    </linearGradient>
    <clipPath id="clip0_1606_597609">
      <rect width="120" height="121.12" fill="white"/>
    </clipPath>
  </defs>
</svg>