<svg xmlns="http://www.w3.org/2000/svg" width="121" height="122" viewBox="0 0 121 122" fill="none">
  <g clip-path="url(#clip0_465_10449)">
    <path d="M55.4422 12.999H5.72068C4.87555 12.999 4.19043 13.6841 4.19043 14.5293V78.5423C4.19043 79.3874 4.87555 80.0725 5.72068 80.0725H55.4422C56.2874 80.0725 56.9725 79.3874 56.9725 78.5423V14.5293C56.9725 13.6841 56.2874 12.999 55.4422 12.999Z" fill="#E0E1E2"/>
    <path d="M11.1274 19.624H51.0116" stroke="white" stroke-width="2" stroke-miterlimit="10" stroke-linecap="round"/>
    <path d="M11.1274 25.0967H51.0116" stroke="white" stroke-width="2" stroke-miterlimit="10" stroke-linecap="round"/>
    <path d="M11.1274 30.5693H51.0116" stroke="white" stroke-width="2" stroke-miterlimit="10" stroke-linecap="round"/>
    <path d="M11.1274 36.043H51.0116" stroke="white" stroke-width="2" stroke-miterlimit="10" stroke-linecap="round"/>
    <path d="M11.1274 41.5156H51.0116" stroke="white" stroke-width="2" stroke-miterlimit="10" stroke-linecap="round"/>
    <path d="M11.1274 46.9883H51.0116" stroke="white" stroke-width="2" stroke-miterlimit="10" stroke-linecap="round"/>
    <path d="M11.1274 52.4619H51.0116" stroke="white" stroke-width="2" stroke-miterlimit="10" stroke-linecap="round"/>
    <path d="M11.1274 57.9307H51.0116" stroke="white" stroke-width="2" stroke-miterlimit="10" stroke-linecap="round"/>
    <path d="M11.1274 63.4033H51.0116" stroke="white" stroke-width="2" stroke-miterlimit="10" stroke-linecap="round"/>
    <path d="M11.1274 68.877H51.0116" stroke="white" stroke-width="2" stroke-miterlimit="10" stroke-linecap="round"/>
    <path d="M11.1274 74.3496H51.0116" stroke="white" stroke-width="2" stroke-miterlimit="10" stroke-linecap="round"/>
    <path d="M93.2962 44.0068H43.5747C42.7296 44.0068 42.0444 44.692 42.0444 45.5371V109.55C42.0444 110.395 42.7296 111.08 43.5747 111.08H93.2962C94.1414 111.08 94.8265 110.395 94.8265 109.55V45.5371C94.8265 44.692 94.1414 44.0068 93.2962 44.0068Z" fill="white" stroke="black" stroke-width="2" stroke-miterlimit="10"/>
    <path d="M48.9854 50.6318H88.8695" stroke="black" stroke-width="2" stroke-miterlimit="10" stroke-linecap="round"/>
    <path d="M48.9854 56.1045H88.8695" stroke="black" stroke-width="2" stroke-miterlimit="10" stroke-linecap="round"/>
    <path d="M48.9854 61.5771H88.8695" stroke="black" stroke-width="2" stroke-miterlimit="10" stroke-linecap="round"/>
    <path d="M48.9854 67.0469H88.8695" stroke="black" stroke-width="2" stroke-miterlimit="10" stroke-linecap="round"/>
    <path d="M48.9854 72.5195H88.8695" stroke="black" stroke-width="2" stroke-miterlimit="10" stroke-linecap="round"/>
    <path d="M48.9854 77.9922H88.8695" stroke="black" stroke-width="2" stroke-miterlimit="10" stroke-linecap="round"/>
    <path d="M48.9854 83.4658H88.8695" stroke="black" stroke-width="2" stroke-miterlimit="10" stroke-linecap="round"/>
    <path d="M48.9854 88.9385H88.8695" stroke="black" stroke-width="2" stroke-miterlimit="10" stroke-linecap="round"/>
    <path d="M48.9854 94.4111H88.8695" stroke="black" stroke-width="2" stroke-miterlimit="10" stroke-linecap="round"/>
    <path d="M48.9854 99.8848H88.8695" stroke="black" stroke-width="2" stroke-miterlimit="10" stroke-linecap="round"/>
    <path d="M48.9854 105.357H88.8695" stroke="black" stroke-width="2" stroke-miterlimit="10" stroke-linecap="round"/>
    <path d="M93.6439 31.2453C93.0154 30.6168 92.0043 30.609 91.3641 31.2257L89.26 33.3298V22.6181C89.26 20.4632 88.4012 18.3943 86.8748 16.8718C85.3485 15.3494 83.2834 14.4905 81.1286 14.4866H70.4168L72.5209 12.3825C73.1377 11.7423 73.126 10.7313 72.5014 10.1028C71.8729 9.47428 70.8579 9.46647 70.2216 10.0833L65.3498 14.9551C65.2717 15.0332 65.2014 15.119 65.139 15.2127C65.1195 15.2401 65.1077 15.2752 65.0882 15.3025C65.0531 15.365 65.018 15.4235 64.9906 15.4899C64.9711 15.5328 64.9633 15.5797 64.9477 15.6265C64.9321 15.6812 64.9087 15.7358 64.8969 15.7944C64.8813 15.8725 64.8774 15.9505 64.8735 16.0286C64.8735 16.0559 64.8657 16.0833 64.8657 16.1106C64.8657 16.1457 64.8735 16.1769 64.8774 16.2121C64.8813 16.2823 64.8852 16.3526 64.8969 16.4229C64.9087 16.4853 64.9321 16.5478 64.9516 16.6064C64.9633 16.6454 64.9711 16.6844 64.9867 16.7235C65.0141 16.7937 65.0531 16.8562 65.0882 16.9186C65.1038 16.946 65.1156 16.9772 65.1351 17.0045C65.1975 17.0943 65.2639 17.1802 65.342 17.2583L70.2216 22.1379C70.5261 22.4424 70.9399 22.6142 71.3732 22.6142C72.029 22.6142 72.6224 22.216 72.8761 21.6109C73.126 21.0019 72.9893 20.3032 72.5248 19.8386L70.4207 17.7345H81.1364C83.8299 17.7345 86.016 19.9206 86.016 22.6142V33.3298L83.9119 31.2257C83.2756 30.609 82.2606 30.6207 81.6321 31.2453C81.0037 31.8738 80.9958 32.8887 81.6126 33.525L86.4923 38.4047C86.5664 38.4788 86.6484 38.5491 86.7382 38.6077C86.7694 38.6311 86.8085 38.6428 86.8397 38.6623C86.8982 38.6974 86.9529 38.7326 87.0154 38.756C87.0622 38.7755 87.1091 38.7833 87.1559 38.7989C87.2106 38.8145 87.2652 38.838 87.3198 38.8497C87.4252 38.8692 87.5346 38.8809 87.6439 38.8809C88.0772 38.8809 88.491 38.7091 88.7955 38.4047C88.7994 38.4008 88.8033 38.3929 88.8111 38.3851L93.6751 33.5211C94.2919 32.8848 94.2841 31.8699 93.6556 31.2414L93.6439 31.2453Z" fill="url(#paint0_linear_465_10449)"/>
    <path d="M3.44066 93.7948C4.06915 94.4233 5.08021 94.4311 5.72042 93.8144L7.82452 91.7102V102.422C7.82452 104.577 8.68334 106.646 10.2097 108.168C11.736 109.691 13.8011 110.55 15.9559 110.553H26.6677L24.5636 112.658C23.9468 113.298 23.9585 114.309 24.5831 114.937C25.2116 115.566 26.2266 115.574 26.8629 114.957L31.7347 110.085C31.8128 110.007 31.8831 109.921 31.9455 109.827C31.9651 109.8 31.9768 109.765 31.9963 109.738C32.0314 109.675 32.0666 109.617 32.0939 109.55C32.1134 109.507 32.1212 109.46 32.1368 109.414C32.1524 109.359 32.1759 109.304 32.1876 109.246C32.2032 109.168 32.2071 109.09 32.211 109.011C32.211 108.984 32.2188 108.957 32.2188 108.93C32.2188 108.894 32.211 108.863 32.2071 108.828C32.2032 108.758 32.1993 108.687 32.1876 108.617C32.1759 108.555 32.1524 108.492 32.1329 108.434C32.1212 108.395 32.1134 108.356 32.0978 108.317C32.0705 108.246 32.0314 108.184 31.9963 108.121C31.9807 108.094 31.969 108.063 31.9494 108.036C31.887 107.946 31.8206 107.86 31.7425 107.782L26.8629 102.902C26.5584 102.598 26.1446 102.426 25.7113 102.426C25.0555 102.426 24.4621 102.824 24.2084 103.429C23.9585 104.038 24.0952 104.737 24.5597 105.201L26.6638 107.306H15.9481C13.2546 107.306 11.0685 105.119 11.0685 102.426V91.7102L13.1726 93.8144C13.8089 94.4311 14.8239 94.4194 15.4524 93.7948C16.0809 93.1663 16.0887 92.1514 15.4719 91.5151L10.5923 86.6354C10.5181 86.5613 10.4361 86.491 10.3463 86.4324C10.3151 86.409 10.2761 86.3973 10.2448 86.3778C10.1863 86.3427 10.1316 86.3075 10.0692 86.2841C10.0223 86.2646 9.97547 86.2568 9.92862 86.2412C9.87397 86.2255 9.81932 86.2021 9.76466 86.1904C9.65926 86.1709 9.54996 86.1592 9.44066 86.1592C9.00735 86.1592 8.59355 86.3309 8.28906 86.6354C8.28516 86.6393 8.28125 86.6471 8.27345 86.6549L3.40943 91.519C2.79264 92.1553 2.80045 93.1702 3.42894 93.7987L3.44066 93.7948Z" fill="url(#paint1_linear_465_10449)"/>
  </g>
  <defs>
    <linearGradient id="paint0_linear_465_10449" x1="64.8618" y1="24.2537" x2="94.1201" y2="24.2537" gradientUnits="userSpaceOnUse">
      <stop stop-color="#1561A6" stop-opacity="0.3"/>
      <stop offset="1" stop-color="#1561A6"/>
    </linearGradient>
    <linearGradient id="paint1_linear_465_10449" x1="32.2227" y1="100.79" x2="2.9644" y2="100.79" gradientUnits="userSpaceOnUse">
      <stop stop-color="#1561A6" stop-opacity="0.3"/>
      <stop offset="1" stop-color="#1561A6"/>
    </linearGradient>
    <clipPath id="clip0_465_10449">
      <rect width="120" height="121.12" fill="white" transform="translate(0.666504)"/>
    </clipPath>
  </defs>
</svg>