<svg xmlns="http://www.w3.org/2000/svg" width="120" height="122" viewBox="0 0 120 122" fill="none">
  <g clip-path="url(#clip0_1606_597584)">
    <path d="M57.4034 33.7129H3.10276C2.25763 33.7129 1.57251 34.398 1.57251 35.2431V105.077C1.57251 105.922 2.25763 106.607 3.10276 106.607H57.4034C58.2485 106.607 58.9336 105.922 58.9336 105.077V35.2431C58.9336 34.398 58.2485 33.7129 57.4034 33.7129Z" fill="#E0E1E2"/>
    <path d="M73.2251 33.7129H18.9245C18.0794 33.7129 17.3943 34.398 17.3943 35.2431V105.077C17.3943 105.922 18.0794 106.607 18.9245 106.607H73.2251C74.0703 106.607 74.7554 105.922 74.7554 105.077V35.2431C74.7554 34.398 74.0703 33.7129 73.2251 33.7129Z" fill="url(#paint0_linear_1606_597584)"/>
    <path fill-rule="evenodd" clip-rule="evenodd" d="M90.3195 106.607H36.0228C35.1757 106.607 34.4926 105.92 34.4926 105.076V35.2469C34.4926 34.3998 35.1796 33.7166 36.0228 33.7166H70.8673L74.8881 28.4505C75.1692 28.0797 75.7274 28.0758 76.0124 28.4427L80.1464 33.7166H90.3156C91.1627 33.7166 91.8458 34.4037 91.8458 35.2469V105.076C91.8458 105.924 91.1588 106.607 90.3156 106.607H90.3195Z" fill="white" stroke="black" stroke-width="2" stroke-miterlimit="10"/>
    <path d="M42.0306 40.9121H85.3735" stroke="black" stroke-width="2" stroke-miterlimit="10" stroke-linecap="round"/>
    <path d="M42.0306 46.8613H85.3735" stroke="black" stroke-width="2" stroke-miterlimit="10" stroke-linecap="round"/>
    <path d="M42.0306 52.8066H85.3735" stroke="black" stroke-width="2" stroke-miterlimit="10" stroke-linecap="round"/>
    <path d="M42.0306 58.7559H85.3735" stroke="black" stroke-width="2" stroke-miterlimit="10" stroke-linecap="round"/>
    <path d="M42.0306 64.7012H85.3735" stroke="black" stroke-width="2" stroke-miterlimit="10" stroke-linecap="round"/>
    <path d="M42.0306 70.6504H85.3735" stroke="black" stroke-width="2" stroke-miterlimit="10" stroke-linecap="round"/>
    <path d="M42.0306 76.5957H85.3735" stroke="black" stroke-width="2" stroke-miterlimit="10" stroke-linecap="round"/>
    <path d="M42.0306 82.5449H85.3735" stroke="black" stroke-width="2" stroke-miterlimit="10" stroke-linecap="round"/>
    <path d="M42.0306 88.4902H85.3735" stroke="black" stroke-width="2" stroke-miterlimit="10" stroke-linecap="round"/>
    <path d="M42.0306 94.4395H85.3735" stroke="black" stroke-width="2" stroke-miterlimit="10" stroke-linecap="round"/>
    <path d="M42.0306 100.385H85.3735" stroke="black" stroke-width="2" stroke-miterlimit="10" stroke-linecap="round"/>
    <path d="M91.2212 15.2087C90.62 14.5763 89.5973 14.5763 88.9922 15.2087C88.3598 15.8098 88.3598 16.8326 88.9922 17.4377L91.1314 19.5769H2.82173C1.9473 19.5769 1.25635 20.2679 1.25635 21.1423C1.25635 22.0167 1.9473 22.7077 2.82173 22.7077H91.1002L88.9922 24.8743C88.3598 25.4754 88.3598 26.4982 88.9922 27.1033C89.2928 27.4039 89.7144 27.5561 90.1048 27.5561C90.4951 27.5561 90.9167 27.4039 91.2173 27.1033L96.0345 22.2861C96.6669 21.6849 96.6669 20.6622 96.0345 20.0571L91.2173 15.2087H91.2212Z" fill="url(#paint1_linear_1606_597584)"/>
    <path d="M75.501 23.255C76.7084 23.255 77.6871 22.2762 77.6871 21.0689C77.6871 19.8616 76.7084 18.8828 75.501 18.8828C74.2937 18.8828 73.3149 19.8616 73.3149 21.0689C73.3149 22.2762 74.2937 23.255 75.501 23.255Z" fill="#1561A6" stroke="white" stroke-miterlimit="10"/>
    <path d="M47.0546 23.255C48.2619 23.255 49.2407 22.2762 49.2407 21.0689C49.2407 19.8616 48.2619 18.8828 47.0546 18.8828C45.8473 18.8828 44.8685 19.8616 44.8685 21.0689C44.8685 22.2762 45.8473 23.255 47.0546 23.255Z" fill="#1561A6" stroke="white" stroke-miterlimit="10"/>
    <path d="M17.4684 23.255C18.6758 23.255 19.6545 22.2762 19.6545 21.0689C19.6545 19.8616 18.6758 18.8828 17.4684 18.8828C16.2611 18.8828 15.2823 19.8616 15.2823 21.0689C15.2823 22.2762 16.2611 23.255 17.4684 23.255Z" fill="#1561A6" stroke="white" stroke-miterlimit="10"/>
  </g>
  <defs>
    <linearGradient id="paint0_linear_1606_597584" x1="17.3943" y1="70.1618" x2="74.7515" y2="70.1618" gradientUnits="userSpaceOnUse">
      <stop stop-color="#1561A6" stop-opacity="0.3"/>
      <stop offset="1" stop-color="#1561A6"/>
    </linearGradient>
    <linearGradient id="paint1_linear_1606_597584" x1="1.25635" y1="21.1423" x2="96.5107" y2="21.1423" gradientUnits="userSpaceOnUse">
      <stop stop-color="#1561A6" stop-opacity="0.3"/>
      <stop offset="1" stop-color="#1561A6"/>
    </linearGradient>
    <clipPath id="clip0_1606_597584">
      <rect width="120" height="121.12" fill="white"/>
    </clipPath>
  </defs>
</svg>