<?xml version="1.0" encoding="UTF-8"?>
<svg id="Layer_2" data-name="Layer 2" xmlns="http://www.w3.org/2000/svg" viewBox="0 0 16.3 10.13">
  <defs>
    <style>
      .cls-1 {
        fill: #789fb7;
      }

      .cls-2 {
        fill: #b8b8b8;
        opacity: .74;
      }

      .cls-3 {
        fill: #1562a6;
      }

      .cls-4 {
        fill: #4b8eb8;
      }

      .cls-5 {
        fill: #3b77a5;
      }
    </style>
  </defs>
  <g id="Layer_1-2" data-name="Layer 1">
    <g>
      <path class="cls-2" d="M3.09,5.06C3.09,2.81,4.57.92,6.61.27c-.49-.16-1-.27-1.54-.27C2.27,0,0,2.27,0,5.06s2.27,5.06,5.06,5.06c.54,0,1.05-.11,1.54-.27-2.04-.66-3.52-2.54-3.52-4.8Z"/>
      <path class="cls-1" d="M6.18,5.06c0-1.63.78-3.06,1.97-3.99.46-.36.98-.63,1.54-.81-.49-.16-1-.27-1.54-.27s-1.05.11-1.54.27c-2.04.66-3.52,2.54-3.52,4.8s1.48,4.14,3.52,4.8c.49.16,1,.27,1.54.27s1.05-.11,1.54-.27c-.57-.18-1.09-.46-1.54-.81-1.19-.93-1.97-2.36-1.97-3.99Z"/>
      <path class="cls-5" d="M11.24,0c-.54,0-1.05.11-1.54.27,2.04.66,3.52,2.54,3.52,4.8s-1.48,4.14-3.52,4.8c.49.16,1,.27,1.54.27,2.8,0,5.06-2.27,5.06-5.06S14.04,0,11.24,0Z"/>
      <path class="cls-4" d="M13.22,5.06c0-2.25-1.48-4.14-3.52-4.8-.57.18-1.09.46-1.54.81,1.19.93,1.97,2.36,1.97,3.99s-.78,3.06-1.97,3.99c.46.36.98.63,1.54.81,2.04-.66,3.52-2.54,3.52-4.8Z"/>
      <path class="cls-4" d="M6.18,5.06c0,1.63.78,3.06,1.97,3.99,1.19-.93,1.97-2.36,1.97-3.99s-.78-3.06-1.97-3.99c-1.19.93-1.97,2.36-1.97,3.99Z"/>
      <path class="cls-3" d="M9.7.27c-.57.18-1.09.46-1.54.81-1.19.93-1.97,2.36-1.97,3.99s.78,3.06,1.97,3.99c.46.36.98.63,1.54.81,2.04-.66,3.52-2.54,3.52-4.8S11.73.92,9.7.27Z"/>
    </g>
  </g>
</svg>