<svg xmlns="http://www.w3.org/2000/svg" width="120" height="18" viewBox="0 0 120 18" fill="none">
  <g clip-path="url(#clip0_1646_7593)">
    <path d="M29.7029 16.1368V1.87939H32.8713V16.1368H29.7029Z" fill="#231F20"/>
    <path d="M42.3921 9.80011V8.20011C42.3921 7.77239 42.2336 7.39219 41.9327 7.0912C41.6158 6.77437 41.2515 6.63179 40.8079 6.63179H39.2237C38.2891 6.63179 37.7663 7.15457 37.6396 8.21595H36.0396C36.293 6.10902 37.3544 5.06348 39.2079 5.06348H42.3762C43.2317 5.06348 43.9762 5.38031 44.594 5.99813C45.2119 6.61595 45.5287 7.36051 45.5287 8.21595V16.1367H42.3762V14.5526C42.2495 15.5981 41.7109 16.1367 40.7762 16.1367H39.1921C38.3366 16.1367 37.5921 15.8199 36.9584 15.2021C36.3247 14.5843 36.0237 13.8397 36.0237 12.9526C36.0237 12.0655 36.3406 11.3526 36.9584 10.7348C37.5921 10.1169 38.3366 9.80011 39.1921 9.80011H42.3604H42.3921ZM42.3921 11.3843H40.7921C40.3643 11.3843 39.9841 11.5427 39.6831 11.8437C39.3663 12.1605 39.2237 12.5249 39.2237 12.9526C39.2237 13.3803 39.3822 13.7605 39.6831 14.0773C40 14.3942 40.3643 14.5526 40.7921 14.5526C41.2198 14.5526 41.6158 14.3942 41.9168 14.0773C42.2336 13.7605 42.3762 13.3803 42.3762 12.9526V11.3684L42.3921 11.3843Z" fill="#231F20"/>
    <path d="M48.7128 5.04785H51.8812V14.5528H53.4653C53.9089 14.5528 54.2891 14.3944 54.5901 14.0776C54.9069 13.7607 55.0495 13.3805 55.0495 12.9528V5.04785H58.2019V14.5528H59.8019C60.2297 14.5528 60.6099 14.3944 60.9109 14.0776C61.2277 13.7607 61.3703 13.3805 61.3703 12.9528V5.04785H64.5386V10.7191C64.5386 12.2082 64.0158 13.4756 62.9544 14.537C61.893 15.5983 60.6257 16.137 59.1208 16.137H55.0336V15.6459C54.4317 15.9785 53.6713 16.137 52.7841 16.137H48.6812V5.04785H48.7128Z" fill="#231F20"/>
    <path d="M69.3227 1.87939H72.4752V5.04771H74.0752V6.63187H72.4752V12.9685C72.4752 13.4913 72.6494 13.8873 72.9821 14.1566C73.3306 14.4259 73.6316 14.5685 73.9168 14.5685H74.0752V16.1527H72.4752C71.6197 16.1527 70.8752 15.8358 70.2574 15.218C69.6395 14.6002 69.3227 13.8556 69.3227 12.9685V6.63187H67.7227V5.04771H69.3227V1.87939Z" fill="#000009"/>
    <path d="M80.4118 16.137H77.2435V5.04785H80.4118V8.20033C80.5386 7.15478 80.8713 6.3627 81.394 5.83993C81.9168 5.31716 82.6455 5.04785 83.596 5.04785H85.1802V8.20033H82.0119C81.5841 8.20033 81.2039 8.35874 80.9029 8.65973C80.6019 8.96072 80.4435 9.34092 80.4435 9.78449V16.1211L80.4118 16.137Z" fill="#000009"/>
    <path d="M93.0851 9.80011V8.20011C93.0851 7.77239 92.9267 7.39219 92.6257 7.0912C92.3247 6.79021 91.9445 6.63179 91.5009 6.63179H89.9168C88.9821 6.63179 88.4594 7.15457 88.3326 8.21595H86.7326C86.9861 6.10902 88.0475 5.06348 89.901 5.06348H93.0693C93.9247 5.06348 94.6693 5.38031 95.2871 5.99813C95.9049 6.61595 96.2217 7.36051 96.2217 8.21595V16.1367H93.0693V14.5526C92.9425 15.5981 92.4039 16.1367 91.4693 16.1367H89.8851C89.0297 16.1367 88.2851 15.8199 87.6515 15.2021C87.0178 14.5843 86.7168 13.8397 86.7168 12.9526C86.7168 12.0655 87.0336 11.3526 87.6515 10.7348C88.2851 10.1169 89.0297 9.80011 89.8851 9.80011H93.0534H93.0851ZM93.0851 11.3843H91.4851C91.0574 11.3843 90.6772 11.5427 90.3762 11.8437C90.0752 12.1447 89.9168 12.5249 89.9168 12.9526C89.9168 13.3803 90.0752 13.7605 90.3762 14.0773C90.6772 14.3942 91.0574 14.5526 91.4851 14.5526C91.9128 14.5526 92.3089 14.3942 92.6099 14.0773C92.9109 13.7605 93.0693 13.3803 93.0693 12.9526V11.3684L93.0851 11.3843Z" fill="#000009"/>
    <path d="M107.343 8.20027H105.758C105.632 7.15473 105.093 6.61611 104.158 6.61611C103.731 6.61611 103.35 6.77453 103.049 7.07552C102.748 7.37651 102.59 7.75671 102.59 8.18443V12.9369C102.59 13.3646 102.748 13.7448 103.049 14.0617C103.35 14.3785 103.731 14.5369 104.158 14.5369C105.093 14.5369 105.632 13.9983 105.758 12.9369H107.343C107.216 15.0597 106.154 16.1052 104.174 16.1052H102.59C101.735 16.1052 100.99 15.7884 100.356 15.1706C99.7227 14.5527 99.4218 13.8082 99.4218 12.9211V8.16859C99.4218 7.31314 99.7386 6.56859 100.356 5.95077C100.99 5.33295 101.735 5.01611 102.59 5.01611H104.174C106.17 5.01611 107.232 6.06166 107.343 8.16859V8.20027Z" fill="#000009"/>
    <path d="M120 11.3845H113.663V12.9686C113.663 13.3964 113.822 13.7766 114.123 14.0934C114.424 14.4102 114.804 14.5686 115.232 14.5686H116.832C117.877 14.5686 118.416 14.03 118.416 12.9686H120C119.762 15.0914 118.701 16.137 116.847 16.137H113.679C112.824 16.137 112.079 15.8201 111.446 15.2023C110.812 14.5845 110.511 13.8399 110.511 12.9528V8.20033C110.511 7.34488 110.828 6.60033 111.446 5.98251C112.079 5.36468 112.824 5.04785 113.679 5.04785H116.847C117.703 5.04785 118.448 5.36468 119.065 5.98251C119.683 6.60033 120 7.34488 120 8.20033V11.3686V11.3845ZM113.679 9.80033H116.847V8.20033C116.847 7.7726 116.689 7.39241 116.388 7.09142C116.087 6.79043 115.707 6.63201 115.263 6.63201C114.82 6.63201 114.455 6.79043 114.154 7.09142C113.853 7.39241 113.695 7.7726 113.695 8.20033V9.80033H113.679Z" fill="#000009"/>
    <path opacity="0.74" d="M4.89505 8.99192C4.89505 5.42756 7.2396 2.4335 10.4713 1.4038C9.69505 1.15033 8.88713 0.976074 8.03168 0.976074C3.59604 0.976074 0 4.57211 0 8.99192C0 13.4117 3.59604 17.0078 8.01584 17.0078C8.87129 17.0078 9.67921 16.8335 10.4554 16.58C7.22376 15.5345 4.87921 12.5563 4.87921 8.97607L4.89505 8.99192Z" fill="#B8B8B8"/>
    <path d="M9.79007 8.99213C9.79007 6.40996 11.0257 4.14461 12.9109 2.67134C13.6396 2.10104 14.4633 1.67332 15.3505 1.38817C14.5742 1.13471 13.7663 0.960449 12.9109 0.960449C12.0554 0.960449 11.2475 1.13471 10.4713 1.38817C7.23957 2.43372 4.89502 5.41193 4.89502 8.99213C4.89502 12.5723 7.23957 15.5505 10.4713 16.5961C11.2475 16.8496 12.0554 17.0238 12.9109 17.0238C13.7663 17.0238 14.5742 16.8496 15.3505 16.5961C14.4475 16.3109 13.6237 15.8674 12.9109 15.3129C11.0257 13.8397 9.79007 11.5743 9.79007 8.99213Z" fill="#789FB7"/>
    <path d="M17.8059 0.976074C16.9505 0.976074 16.1426 1.15033 15.3663 1.4038C18.598 2.44934 20.9426 5.42756 20.9426 9.00776C20.9426 12.588 18.598 15.5662 15.3663 16.6117C16.1426 16.8652 16.9505 17.0394 17.8059 17.0394C22.2416 17.0394 25.8218 13.4434 25.8218 9.0236C25.8218 4.6038 22.2416 0.976074 17.8059 0.976074Z" fill="#3B77A5"/>
    <path d="M20.9426 8.99215C20.9426 5.42779 18.598 2.43373 15.3664 1.38818C14.4634 1.67333 13.6396 2.1169 12.9268 2.67135C14.8119 4.14462 16.0476 6.40997 16.0476 8.99215C16.0476 11.5743 14.8119 13.8397 12.9268 15.3129C13.6555 15.8832 14.4792 16.311 15.3664 16.5961C18.598 15.5506 20.9426 12.5723 20.9426 8.99215Z" fill="#4B8EB8"/>
    <path d="M9.7901 8.99218C9.7901 11.5744 11.0257 13.8397 12.9109 15.313C14.796 13.8397 16.0317 11.5744 16.0317 8.99218C16.0317 6.41 14.796 4.14465 12.9109 2.67139C11.0257 4.14465 9.7901 6.41 9.7901 8.99218Z" fill="#4B8EB8"/>
    <path d="M15.3664 1.40381C14.4634 1.68896 13.6396 2.13252 12.9268 2.68698C11.0416 4.16024 9.80597 6.42559 9.80597 9.00777C9.80597 11.5899 11.0416 13.8553 12.9268 15.3286C13.6555 15.8989 14.4792 16.3266 15.3664 16.6117C18.598 15.5662 20.9426 12.588 20.9426 9.00777C20.9426 5.42757 18.5822 2.43351 15.3664 1.40381Z" fill="#1562A6"/>
  </g>
  <defs>
    <clipPath id="clip0_1646_7593">
      <rect width="120" height="16.0475" fill="white" transform="translate(0 0.976074)"/>
    </clipPath>
  </defs>
</svg>