<svg xmlns="http://www.w3.org/2000/svg" width="160" height="23" viewBox="0 0 160 23" fill="none">
  <path d="M39.604 20.8391V2.18164H43.8284V20.8391H39.604Z" fill="white"/>
  <path d="M56.5228 12.5471V10.4533C56.5228 9.89355 56.3116 9.39602 55.9103 9.00214C55.4878 8.58753 55.002 8.40095 54.4106 8.40095H52.2984C51.0522 8.40095 50.3552 9.08506 50.1862 10.474H48.0529C48.3908 7.71685 49.806 6.34863 52.2773 6.34863H56.5017C57.6423 6.34863 58.635 6.76324 59.4588 7.57173C60.2826 8.38022 60.705 9.35456 60.705 10.474V20.8393H56.5017V18.7662C56.3327 20.1344 55.6146 20.8393 54.3684 20.8393H52.2562C51.1156 20.8393 50.1228 20.4246 49.2779 19.6162C48.4331 18.8077 48.0317 17.8333 48.0317 16.6724C48.0317 15.5115 48.4542 14.5786 49.2779 13.7702C50.1228 12.9617 51.1156 12.5471 52.2562 12.5471H56.4806H56.5228ZM56.5228 14.6201H54.3895C53.8192 14.6201 53.3123 14.8274 52.9109 15.2213C52.4885 15.6359 52.2984 16.1127 52.2984 16.6724C52.2984 17.2321 52.5096 17.7297 52.9109 18.1443C53.3334 18.5589 53.8192 18.7662 54.3895 18.7662C54.9598 18.7662 55.4878 18.5589 55.8892 18.1443C56.3116 17.7297 56.5017 17.2321 56.5017 16.6724V14.5994L56.5228 14.6201Z" fill="white"/>
  <path d="M64.9506 6.32764H69.175V18.7659H71.2872C71.8786 18.7659 72.3856 18.5586 72.7869 18.144C73.2093 17.7294 73.3994 17.2319 73.3994 16.6722V6.32764H77.6027V18.7659H79.736C80.3063 18.7659 80.8133 18.5586 81.2146 18.144C81.637 17.7294 81.8271 17.2319 81.8271 16.6722V6.32764H86.0516V13.7492C86.0516 15.6978 85.3545 17.3563 83.9394 18.7452C82.5242 20.1342 80.8344 20.839 78.8278 20.839H73.3783V20.1963C72.5757 20.6317 71.5618 20.839 70.379 20.839H64.9083V6.32764H64.9506Z" fill="white"/>
  <path d="M92.4304 2.18164H96.6338V6.32774H98.7671V8.40079H96.6338V16.693C96.6338 17.3771 96.8661 17.8954 97.3097 18.2478C97.7743 18.6002 98.1757 18.7868 98.5559 18.7868H98.7671V20.8598H96.6338C95.4932 20.8598 94.5004 20.4452 93.6767 19.6367C92.8529 18.8282 92.4304 17.8539 92.4304 16.693V8.40079H90.2971V6.32774H92.4304V2.18164Z" fill="white"/>
  <path d="M107.216 20.839H102.991V6.32764H107.216V10.453C107.385 9.08479 107.828 8.04827 108.525 7.36416C109.222 6.68006 110.194 6.32764 111.461 6.32764H113.574V10.453H109.349C108.779 10.453 108.272 10.6603 107.871 11.0542C107.469 11.4481 107.258 11.9456 107.258 12.5261V20.8183L107.216 20.839Z" fill="white"/>
  <path d="M124.114 12.5471V10.4533C124.114 9.89355 123.902 9.39602 123.501 9.00214C123.1 8.60826 122.593 8.40095 122.001 8.40095H119.889C118.643 8.40095 117.946 9.08506 117.777 10.474H115.644C115.982 7.71685 117.397 6.34863 119.868 6.34863H124.092C125.233 6.34863 126.226 6.76324 127.049 7.57173C127.873 8.38022 128.296 9.35456 128.296 10.474V20.8393H124.092V18.7662C123.923 20.1344 123.205 20.8393 121.959 20.8393H119.847C118.706 20.8393 117.714 20.4246 116.869 19.6162C116.024 18.8077 115.622 17.8333 115.622 16.6724C115.622 15.5115 116.045 14.5786 116.869 13.7702C117.714 12.9617 118.706 12.5471 119.847 12.5471H124.071H124.114ZM124.114 14.6201H121.98C121.41 14.6201 120.903 14.8274 120.502 15.2213C120.1 15.6152 119.889 16.1127 119.889 16.6724C119.889 17.2321 120.1 17.7297 120.502 18.1443C120.903 18.5589 121.41 18.7662 121.98 18.7662C122.55 18.7662 123.079 18.5589 123.48 18.1443C123.881 17.7297 124.092 17.2321 124.092 16.6724V14.5994L124.114 14.6201Z" fill="white"/>
  <path d="M143.123 10.453H141.011C140.842 9.08475 140.124 8.37991 138.878 8.37991C138.308 8.37991 137.801 8.58722 137.399 8.9811C136.998 9.37498 136.787 9.87251 136.787 10.4322V16.6514C136.787 17.2111 136.998 17.7086 137.399 18.1233C137.801 18.5379 138.308 18.7452 138.878 18.7452C140.124 18.7452 140.842 18.0403 141.011 16.6514H143.123C142.954 19.4293 141.539 20.7975 138.899 20.7975H136.787C135.646 20.7975 134.653 20.3829 133.809 19.5744C132.964 18.7659 132.562 17.7916 132.562 16.6307V10.4115C132.562 9.29206 132.985 8.31772 133.809 7.50923C134.653 6.70074 135.646 6.28613 136.787 6.28613H138.899C141.56 6.28613 142.976 7.65435 143.123 10.4115V10.453Z" fill="white"/>
  <path d="M160 14.6198H151.551V16.6929C151.551 17.2526 151.762 17.7501 152.164 18.1648C152.565 18.5794 153.072 18.7867 153.642 18.7867H155.776C157.17 18.7867 157.888 18.0818 157.888 16.6929H160C159.683 19.4708 158.268 20.839 155.797 20.839H151.572C150.432 20.839 149.439 20.4244 148.594 19.6159C147.749 18.8074 147.348 17.8331 147.348 16.6722V10.453C147.348 9.33356 147.77 8.35923 148.594 7.55074C149.439 6.74225 150.432 6.32764 151.572 6.32764H155.797C156.937 6.32764 157.93 6.74225 158.754 7.55074C159.578 8.35923 160 9.33356 160 10.453V14.5991V14.6198ZM151.572 12.5468H155.797V10.453C155.797 9.89328 155.586 9.39575 155.184 9.00187C154.783 8.60799 154.276 8.40069 153.685 8.40069C153.093 8.40069 152.607 8.60799 152.206 9.00187C151.805 9.39575 151.593 9.89328 151.593 10.453V12.5468H151.572Z" fill="white"/>
  <path d="M6.52673 11.4896C6.52673 6.82527 9.65281 2.90721 13.9617 1.55972C12.9267 1.22804 11.8495 1 10.7089 1C4.79472 1 0 5.70582 0 11.4896C0 17.2734 4.79472 21.9793 10.6878 21.9793C11.8284 21.9793 12.9056 21.7512 13.9406 21.4195C9.63168 20.0513 6.50561 16.154 6.50561 11.4689L6.52673 11.4896Z" fill="#DBDBDB"/>
  <path d="M13.0535 11.4899C13.0535 8.11079 14.701 5.14632 17.2145 3.21839C18.1861 2.47209 19.2845 1.91236 20.4673 1.53922C19.4323 1.20753 18.3551 0.979492 17.2145 0.979492C16.0739 0.979492 14.9967 1.20753 13.9617 1.53922C9.65281 2.90743 6.52673 6.80476 6.52673 11.4899C6.52673 16.175 9.65281 20.0723 13.9617 21.4405C14.9967 21.7722 16.0739 22.0002 17.2145 22.0002C18.3551 22.0002 19.4323 21.7722 20.4673 21.4405C19.2634 21.0673 18.165 20.4869 17.2145 19.7613C14.701 17.8334 13.0535 14.8689 13.0535 11.4899Z" fill="#789FB7"/>
  <path d="M23.7412 1C22.6006 1 21.5234 1.22804 20.4884 1.55972C24.7973 2.92794 27.9234 6.82527 27.9234 11.5104C27.9234 16.1955 24.7973 20.0928 20.4884 21.461C21.5234 21.7927 22.6006 22.0207 23.7412 22.0207C29.6554 22.0207 34.429 17.3149 34.429 11.5311C34.429 5.74728 29.6554 1 23.7412 1Z" fill="#3B77A5"/>
  <path d="M27.9234 11.4897C27.9234 6.82534 24.7973 2.90728 20.4884 1.53906C19.2844 1.91221 18.1861 2.49267 17.2356 3.21823C19.7491 5.14617 21.3967 8.11063 21.3967 11.4897C21.3967 14.8688 19.7491 17.8332 17.2356 19.7612C18.2072 20.5075 19.3056 21.0672 20.4884 21.4403C24.7973 20.0721 27.9234 16.1748 27.9234 11.4897Z" fill="#4B8EB8"/>
  <path d="M13.0535 11.4897C13.0535 14.8688 14.701 17.8333 17.2145 19.7612C19.7281 17.8333 21.3756 14.8688 21.3756 11.4897C21.3756 8.11066 19.7281 5.1462 17.2145 3.21826C14.701 5.1462 13.0535 8.11066 13.0535 11.4897Z" fill="#4B8EB8"/>
  <path d="M20.4884 1.56006C19.2845 1.93321 18.1861 2.51366 17.2356 3.23923C14.7221 5.16717 13.0746 8.13163 13.0746 11.5107C13.0746 14.8898 14.7221 17.8542 17.2356 19.7822C18.2073 20.5285 19.3056 21.0882 20.4884 21.4613C24.7974 20.0931 27.9234 16.1958 27.9234 11.5107C27.9234 6.82561 24.7762 2.90754 20.4884 1.56006Z" fill="#1562A6"/>
</svg>