<svg width="16" height="16" viewBox="0 0 16 16" fill="none" xmlns="http://www.w3.org/2000/svg">
<g id="icon-wrapper" clip-path="url(#clip0_518_4265)">
<path id="Union" d="M11.7414 10.3431C12.7097 9.02181 13.1434 7.38361 12.9557 5.75627C12.7681 4.12893 11.9728 2.63246 10.7292 1.56625C9.48555 0.500045 7.88518 -0.0572725 6.24827 0.00580065C4.61136 0.0688738 3.05862 0.747686 1.9007 1.90643C0.742785 3.06518 0.0650835 4.6184 0.00318169 6.25536C-0.0587201 7.89231 0.499742 9.49228 1.56684 10.7352C2.63394 11.9781 4.13098 12.7722 5.75845 12.9587C7.38593 13.1452 9.02381 12.7104 10.3444 11.7411H10.3434C10.3734 11.7811 10.4054 11.8191 10.4414 11.8561L14.2914 15.7061C14.4789 15.8938 14.7333 15.9992 14.9986 15.9993C15.2638 15.9994 15.5183 15.8941 15.7059 15.7066C15.8936 15.5191 15.999 15.2647 15.9991 14.9995C15.9992 14.7342 15.8939 14.4798 15.7064 14.2921L11.8564 10.4421C11.8207 10.4059 11.7822 10.3725 11.7414 10.3421V10.3431ZM11.9994 6.49912C11.9994 7.22139 11.8572 7.93659 11.5808 8.60388C11.3044 9.27117 10.8992 9.87749 10.3885 10.3882C9.8778 10.8989 9.27148 11.3041 8.60419 11.5805C7.9369 11.8569 7.2217 11.9991 6.49943 11.9991C5.77716 11.9991 5.06196 11.8569 4.39467 11.5805C3.72738 11.3041 3.12107 10.8989 2.61035 10.3882C2.09962 9.87749 1.6945 9.27117 1.4181 8.60388C1.14169 7.93659 0.999433 7.22139 0.999433 6.49912C0.999433 5.04043 1.5789 3.64149 2.61035 2.61004C3.6418 1.57859 5.04074 0.999124 6.49943 0.999124C7.95812 0.999124 9.35707 1.57859 10.3885 2.61004C11.42 3.64149 11.9994 5.04043 11.9994 6.49912Z" fill="#6C757D"/>
</g>
<defs>
<clipPath id="clip0_518_4265">
<rect width="16" height="16" fill="white"/>
</clipPath>
</defs>
</svg>
